<svg width="125" height="113" viewBox="0 0 125 113" fill="none" xmlns="http://www.w3.org/2000/svg">
<path d="M25.0567 3.24185L24.6771 4.16701L25.0567 3.24185ZM124.557 8.74185L118.464 18.5505L113.016 8.36953L124.557 8.74185ZM114.963 14.8745C113.094 15.814 111.251 16.7201 109.434 17.5935L108.567 15.7909C110.374 14.9227 112.206 14.0219 114.065 13.0876L114.963 14.8745ZM102.046 21.0308C100.114 21.8989 98.2142 22.7284 96.3449 23.5205L95.5646 21.6791C97.4203 20.8927 99.3073 20.0689 101.226 19.2065L102.046 21.0308ZM88.818 26.5751C86.8358 27.343 84.8912 28.0665 82.9838 28.7473L82.3115 26.8637C84.2017 26.1891 86.1296 25.4717 88.0956 24.7101L88.818 26.5751ZM75.194 31.3584C73.2073 31.9796 71.2649 32.5516 69.3663 33.0764L68.8334 31.1487C70.71 30.63 72.6311 30.0643 74.5971 29.4495L75.194 31.3584ZM61.3887 35.066C59.2882 35.5307 57.2477 35.9333 55.2663 36.2772L54.9243 34.3067C56.8745 33.9682 58.8849 33.5715 60.9567 33.1132L61.3887 35.066ZM47.113 37.4035C44.9699 37.6191 42.9072 37.7596 40.9234 37.8303L40.8522 35.8316C42.7911 35.7625 44.8107 35.6251 46.9128 35.4135L47.113 37.4035ZM32.6931 37.7081C30.5215 37.557 28.4667 37.3113 26.5262 36.9816L26.8612 35.0098C28.7337 35.328 30.7228 35.5661 32.832 35.713L32.6931 37.7081ZM18.4102 34.9136C16.3231 34.1779 14.4235 33.3252 12.7058 32.3786L13.6712 30.627C15.2875 31.5178 17.0861 32.3262 19.0752 33.0274L18.4102 34.9136ZM5.93793 27.3102C4.34734 25.683 3.08669 23.9485 2.14331 22.1691L3.91033 21.2323C4.76003 22.835 5.90516 24.4155 7.36817 25.9122L5.93793 27.3102ZM0.000404358 13.8588C0.0099411 11.59 0.515732 9.41679 1.48884 7.4876L3.27453 8.38832C2.44883 10.0253 2.0087 11.8907 2.00039 13.8672L0.000404358 13.8588ZM7.74287 1.47365C9.58189 0.617603 11.7057 0.105916 14.0777 0.0147104L14.1545 2.01323C12.0254 2.0951 10.1654 2.55207 8.5869 3.28683L7.74287 1.47365ZM22.4227 1.23127C23.402 1.5336 24.4069 1.89439 25.4362 2.31668L24.6771 4.16701C23.7005 3.76636 22.7521 3.42609 21.8327 3.14229L22.4227 1.23127ZM25.4362 2.31668C26.4605 2.73689 27.4116 3.31712 28.2918 4.03692L27.0258 5.58515C26.2855 4.9798 25.5033 4.50596 24.6771 4.16701L25.4362 2.31668ZM33.2916 10.9803C34.1038 12.7505 34.8055 14.7268 35.4059 16.8716L33.4799 17.4108C32.9019 15.3458 32.2339 13.4711 31.4738 11.8143L33.2916 10.9803ZM37.1011 24.9617C37.3997 26.9287 37.6424 28.9812 37.8323 31.1028L35.8402 31.2811C35.6536 29.1957 35.4156 27.1842 35.1238 25.2618L37.1011 24.9617ZM38.3015 39.3079C38.3577 41.3248 38.3754 43.3818 38.3563 45.4677L36.3564 45.4495C36.3752 43.3867 36.3578 41.3545 36.3022 39.3637L38.3015 39.3079ZM38.1041 53.6634C37.9995 55.6983 37.8641 57.7469 37.6996 59.7996L35.706 59.6399C35.869 57.6056 36.0031 55.5761 36.1068 53.5607L38.1041 53.6634ZM36.8975 67.9534C36.6594 69.9973 36.3946 72.0331 36.1047 74.0512L34.125 73.7667C34.4124 71.7663 34.6749 69.7483 34.9109 67.7221L36.8975 67.9534ZM34.7904 82.1419C34.4182 84.1889 34.0209 86.2028 33.6002 88.1726L31.6443 87.7549C32.0606 85.8057 32.454 83.8118 32.8226 81.7842L34.7904 82.1419ZM31.7022 96.1539C31.1585 98.2119 30.5881 100.196 29.9938 102.089L28.0855 101.49C28.6699 99.6283 29.2319 97.6741 29.7686 95.643L31.7022 96.1539ZM27.2152 109.829C26.8052 110.82 26.3869 111.768 25.9608 112.669L24.1526 111.814C24.5634 110.945 24.9686 110.028 25.3673 109.064L27.2152 109.829Z" fill="white" fill-opacity="0.6"/>
</svg>
