<svg width="160" height="80" viewBox="0 0 160 80" fill="none" xmlns="http://www.w3.org/2000/svg">
<path d="M46.9393 47.0968V26.5731H58.9504V29.1462H49.4265V35.4565H57.9798V38.0296H49.4265V44.4625H59.6176V47.0356H46.9393V47.0968Z" fill="#C9D1D9"/>
<path d="M72.2353 47.0968L68.1103 41.6443L63.9853 47.0968H61.0735L66.7151 39.8063L60.7702 32.2708H64.046L68.1103 37.9071L72.2353 32.2708H75.4503L69.8088 39.8063L75.147 47.0968H72.2353Z" fill="#C9D1D9"/>
<path d="M79.1508 44.8913V55H76.6636V39.8676C76.6636 36.0079 79.5754 31.9032 84.1251 31.9032C88.7354 31.9032 92.1931 34.8439 92.1931 39.6838C92.1931 44.4012 88.6747 47.6483 84.671 47.6483C82.7298 47.6483 80.1214 46.7905 79.1508 44.8913ZM89.5846 39.6838C89.5846 36.3755 87.4615 34.4151 83.7004 34.5988C81.8806 34.6601 79.0901 36.0079 79.3328 40.7253C79.3934 42.2569 80.9706 45.1364 84.4284 45.1364C87.4008 45.1364 89.5846 43.421 89.5846 39.6838Z" fill="#C9D1D9"/>
<path d="M94.3162 47.0969V32.2708H96.8033V33.8637C98.0166 32.4546 99.8971 31.9645 101.899 31.9645V34.6601C101.596 34.5989 98.6232 34.2313 96.8033 38.1522V47.1581H94.3162V47.0969Z" fill="#C9D1D9"/>
<path d="M102.566 39.6838C102.566 35.3953 105.599 31.9032 109.785 31.9032C115.002 31.9032 116.943 35.3953 116.943 39.8676V41.0929H105.296C105.478 43.9111 107.965 45.3815 110.27 45.3202C111.969 45.2589 113.121 44.7688 114.335 43.5435L115.972 45.2589C114.456 46.7293 112.515 47.7095 110.149 47.7095C105.721 47.6483 102.566 44.34 102.566 39.6838ZM109.603 34.4151C107.237 34.4151 105.417 36.4981 105.296 38.7649H114.335C114.335 36.5593 112.757 34.4151 109.603 34.4151Z" fill="#C9D1D9"/>
<path d="M118.217 45.0139L120.037 43.3598C119.976 43.3598 120.947 44.34 121.068 44.4013C121.493 44.7688 121.917 45.0139 122.463 45.1364C124.04 45.5653 126.892 45.4428 127.134 43.2372C127.256 42.0119 126.346 41.338 125.314 40.9092C123.98 40.419 122.524 40.2352 121.189 39.6226C119.673 38.9487 118.702 37.7846 118.702 36.0692C118.702 31.5969 125.011 30.8617 127.862 32.9447C127.983 33.0672 129.379 34.3538 129.318 34.3538L127.498 35.8242C126.588 34.7214 125.739 34.17 123.798 34.17C122.827 34.17 121.493 34.5989 121.25 35.6404C120.886 37.1107 122.524 37.6621 123.616 37.9684C125.072 38.336 126.649 38.5811 127.923 39.3775C129.682 40.4803 130.107 42.8696 129.439 44.7076C128.711 46.7293 126.528 47.5258 124.586 47.587C122.281 47.7096 120.279 46.9744 118.642 45.3202C118.52 45.3202 118.217 45.0139 118.217 45.0139Z" fill="#C9D1D9"/>
<path d="M131.017 45.0139L132.836 43.3598C132.776 43.3598 133.746 44.34 133.868 44.4013C134.292 44.7688 134.717 45.0139 135.263 45.1364C136.84 45.5653 139.691 45.4428 139.934 43.2372C140.055 42.0119 139.145 41.338 138.114 40.9092C136.779 40.419 135.324 40.2352 133.989 39.6226C132.472 38.9487 131.502 37.7846 131.502 36.0692C131.502 31.5969 137.811 30.8617 140.662 32.9447C140.783 33.0672 142.178 34.3538 142.118 34.3538L140.298 35.8242C139.388 34.7214 138.539 34.17 136.597 34.17C135.627 34.17 134.292 34.5989 134.05 35.6404C133.686 37.1107 135.324 37.6621 136.415 37.9684C137.871 38.336 139.449 38.5811 140.722 39.3775C142.482 40.4803 142.906 42.8696 142.239 44.7076C141.511 46.7293 139.327 47.5258 137.386 47.587C135.081 47.7096 133.079 46.9744 131.441 45.3202C131.32 45.3202 131.017 45.0139 131.017 45.0139Z" fill="#C9D1D9"/>
<path d="M142.846 32.2708V30.6779H142.3V30.3716H143.756V30.6779H143.21V32.2708H142.846Z" fill="#C9D1D9"/>
<path d="M145.575 32.2708V30.8004L145.029 32.2708H144.908L144.362 30.8004V32.2708H144.059V30.3716H144.544L145.029 31.6581L145.515 30.3716H146V32.2708H145.575Z" fill="#C9D1D9"/>
<path d="M30.0754 47.0968L28.2555 42.1957H18.4283L16.6085 47.0968H14L21.886 26.5731H24.7371L32.5625 47.0968H30.0754ZM23.2206 29.5138L19.5202 39.6838H27.2243L23.2206 29.5138Z" fill="#C9D1D9"/>
<path d="M34.2004 47.0968V26.5731H36.7482V47.0968H34.2004Z" fill="#C9D1D9"/>
<path d="M40.5699 47.0969V32.5771H43.1177V47.0969H40.5699Z" fill="#C9D1D9"/>
<path d="M45.5441 27.8597V27.6146C43.6029 27.5534 42.0257 25.9605 41.9651 24H41.6011C41.5404 25.9605 39.9632 27.5534 38.0221 27.6146V27.8597C39.9632 27.921 41.5404 29.5138 41.6011 31.4743H41.9651C42.0257 29.5138 43.6029 27.921 45.5441 27.8597Z" fill="#C9D1D9"/>
</svg>
