<svg width="160" height="80" viewBox="0 0 160 80" fill="none" xmlns="http://www.w3.org/2000/svg">
<path fill-rule="evenodd" clip-rule="evenodd" d="M77.0423 50.0147C70.0109 55.2218 59.8192 58 51.0442 58C38.7403 58 27.6637 53.4278 19.2837 45.8237C18.6255 45.2255 19.2154 44.4107 20.0054 44.8764C29.0489 50.1629 40.2309 53.3432 51.7816 53.3432C59.5716 53.3432 68.1411 51.7239 76.0206 48.3637C77.2109 47.8557 78.2063 49.1468 77.0423 50.0147Z" fill="#C9D1D9"/>
<path fill-rule="evenodd" clip-rule="evenodd" d="M80.5836 48.6001C79.6882 47.4464 74.6422 48.055 72.3773 48.3249C71.6874 48.4096 71.5821 47.8063 72.2036 47.3724C76.2224 44.5307 82.8168 45.351 83.5858 46.3034C84.3547 47.2613 83.3856 53.9024 79.6091 57.0722C79.0297 57.5591 78.4766 57.2998 78.7347 56.6542C79.5828 54.5269 81.4842 49.759 80.5836 48.6001Z" fill="#C9D1D9"/>
<path fill-rule="evenodd" clip-rule="evenodd" d="M88.9411 26.0006V23.2383C88.9411 22.8202 89.2572 22.5398 89.6364 22.5398H101.946C102.341 22.5398 102.657 22.8255 102.657 23.2383V25.6037C102.651 26.0006 102.32 26.5192 101.73 27.3394L95.3512 36.4889C97.7214 36.4308 100.223 36.7853 102.372 38.0024C102.857 38.2776 102.988 38.6798 103.025 39.0766V42.0242C103.025 42.4263 102.583 42.8973 102.119 42.6539C98.3323 40.659 93.3024 40.442 89.115 42.6751C88.6884 42.908 88.2407 42.4423 88.2407 42.0401V39.2407C88.2407 38.7909 88.2459 38.0236 88.6936 37.341L96.0833 26.6939H89.6521C89.2572 26.6939 88.9411 26.4134 88.9411 26.0006ZM44.0396 43.236H40.2947C39.9365 43.2096 39.6522 42.9397 39.6258 42.5957V23.286C39.6258 22.8996 39.947 22.5926 40.3473 22.5926H43.8394C44.2028 22.6085 44.4925 22.889 44.5189 23.2382V25.7626H44.5874C45.4985 23.323 47.2103 22.1854 49.5173 22.1854C51.8611 22.1854 53.3254 23.323 54.3788 25.7626C55.2848 23.323 57.3442 22.1854 59.5511 22.1854C61.1206 22.1854 62.8377 22.8363 63.8858 24.2968C65.0709 25.9213 64.8286 28.2815 64.8286 30.3506L64.8233 42.5376C64.8233 42.9239 64.502 43.2361 64.1018 43.2361H60.3622C59.9883 43.2097 59.6879 42.9081 59.6879 42.5376V32.3032C59.6879 31.4882 59.7618 29.456 59.5827 28.6836C59.3035 27.3871 58.4661 27.0219 57.381 27.0219C56.475 27.0219 55.527 27.6305 55.1425 28.6042C54.758 29.578 54.7949 31.2077 54.7949 32.3032V42.5374C54.7949 42.9238 54.4736 43.236 54.0733 43.236H50.3337C49.9545 43.2096 49.6595 42.908 49.6595 42.5374L49.6543 32.3032C49.6543 30.1494 50.0071 26.9797 47.3473 26.9797C44.6559 26.9797 44.7611 30.07 44.7611 32.3032V42.5374C44.7611 42.9238 44.4399 43.236 44.0396 43.236ZM113.254 22.1853C118.811 22.1853 121.818 26.9796 121.818 33.0758C121.818 38.9655 118.495 43.6383 113.254 43.6383C107.797 43.6383 104.827 38.8438 104.827 32.8693C104.827 26.8579 107.834 22.1853 113.254 22.1853ZM113.285 26.1276C110.525 26.1276 110.352 29.906 110.352 32.2608C110.352 34.621 110.315 39.6587 113.254 39.6587C116.156 39.6587 116.293 35.5947 116.293 33.1181C116.293 31.4882 116.224 29.5408 115.735 27.9956C115.313 26.6515 114.476 26.1276 113.286 26.1276H113.285ZM129.023 43.236H125.294C124.92 43.2096 124.62 42.908 124.62 42.5374L124.615 23.2224C124.646 22.8679 124.957 22.5926 125.336 22.5926H128.808C129.134 22.6085 129.403 22.8309 129.476 23.1324V26.0853H129.545C130.593 23.4447 132.063 22.1853 134.649 22.1853C136.329 22.1853 137.967 22.7937 139.02 24.4607C140 26.0058 140 28.6042 140 30.4722V42.6274C139.958 42.9661 139.647 43.236 139.278 43.236H135.523C135.181 43.2096 134.896 42.9555 134.859 42.6274V32.1391C134.859 30.0277 135.102 26.9371 132.516 26.9371C131.604 26.9371 130.767 27.5511 130.351 28.4824C129.824 29.6626 129.756 30.8373 129.756 32.1392V42.5374C129.75 42.9238 129.424 43.236 129.023 43.236ZM79.1287 34.0124C79.1287 35.4782 79.1656 36.7007 78.4281 38.0023C77.833 39.0608 76.8849 39.7116 75.8367 39.7116C74.3989 39.7116 73.5561 38.611 73.5561 36.9864C73.5561 33.7795 76.4162 33.1974 79.1287 33.1974V34.0124ZM82.9051 43.1831C82.6576 43.4053 82.2995 43.4213 82.0203 43.2731C80.7773 42.2358 80.5508 41.7543 79.8713 40.7647C77.8171 42.8709 76.3582 43.5006 73.6983 43.5006C70.5433 43.5006 68.0942 41.5479 68.0942 37.6374C68.0942 34.5839 69.7375 32.5043 72.0866 31.4882C74.1197 30.5886 76.9586 30.4298 79.1288 30.1811V29.6943C79.1288 28.7999 79.1971 27.7416 78.6704 26.969C78.2175 26.2758 77.3431 25.99 76.5689 25.99C75.1415 25.99 73.8722 26.7255 73.5614 28.2496C73.4982 28.5883 73.2506 28.9216 72.9083 28.9376L69.2793 28.546C68.9738 28.4772 68.6314 28.2284 68.721 27.7575C69.5532 23.3336 73.5351 22 77.0957 22C78.9181 22 81.2988 22.4869 82.7368 23.8734C84.559 25.5826 84.3853 27.8633 84.3853 30.3452V36.2085C84.3853 37.9707 85.1122 38.7432 85.7968 39.6958C86.034 40.0345 86.0865 40.442 85.7811 40.6959C85.0174 41.3362 83.6584 42.5269 82.9105 43.1937L82.9053 43.1831H82.9051ZM30.0345 34.0124C30.0345 35.4782 30.0714 36.7007 29.3339 38.0023C28.7388 39.0608 27.796 39.7116 26.7425 39.7116C25.3047 39.7116 24.4671 38.611 24.4671 36.9864C24.4671 33.7795 27.3272 33.1974 30.0345 33.1974V34.0124ZM33.8109 43.1831C33.5634 43.4053 33.2053 43.4213 32.9261 43.2731C31.6831 42.2358 31.4618 41.7543 30.7772 40.7647C28.723 42.8709 27.2694 43.5006 24.6041 43.5006C21.4545 43.5006 19 41.5479 19 37.6374C19 34.5839 20.6486 32.5043 22.9924 31.4882C25.0256 30.5886 27.8645 30.4298 30.0345 30.1811V29.6943C30.0345 28.7999 30.103 27.7416 29.5814 26.969C29.1232 26.2758 28.249 25.99 27.4799 25.99C26.0526 25.99 24.778 26.7255 24.4671 28.2496C24.404 28.5883 24.1564 28.9216 23.8193 28.9376L20.1851 28.546C19.8795 28.4772 19.5426 28.2284 19.6268 27.7575C20.4642 23.3336 24.4409 22 28.0014 22C29.8237 22 32.2045 22.4869 33.6425 23.8734C35.4647 25.5826 35.291 27.8633 35.291 30.3452V36.2085C35.291 37.9707 36.0178 38.7432 36.7025 39.6958C36.9449 40.0345 36.9975 40.442 36.692 40.6959C35.9283 41.3362 34.5694 42.5269 33.8215 43.1937L33.811 43.1831" fill="#C9D1D9"/>
</svg>
