<svg width="160" height="80" viewBox="0 0 160 80" fill="none" xmlns="http://www.w3.org/2000/svg">
<path fill-rule="evenodd" clip-rule="evenodd" d="M139.493 28.147C140.661 28.1026 141.829 28.0499 143 28C142.356 34.4095 141.715 40.819 141.077 47.2312C139.882 47.2367 138.686 47.2506 137.491 47.2589C137.538 46.6599 137.582 46.0608 137.635 45.4617C137.651 45.3175 137.618 45.1761 137.585 45.0374C136.947 45.8972 136.12 46.6321 135.138 47.0703C134.004 47.5834 132.669 47.6611 131.493 47.2451C130.561 46.8956 129.934 46.0469 129.557 45.1622C128.996 43.8503 128.849 42.3943 128.935 40.9798C129.021 39.6929 129.318 38.4171 129.856 37.244C130.3 36.2816 130.922 35.3857 131.74 34.7035C132.636 33.9435 133.762 33.436 134.944 33.3583C136.298 33.264 137.668 33.6495 138.822 34.3568C138.847 34.3263 138.9 34.2597 138.928 34.2292C139.111 32.2018 139.305 30.1744 139.493 28.147ZM134.633 36.5839C133.807 37.072 133.293 37.9512 133.06 38.8609C132.73 40.1755 132.528 41.565 132.783 42.9101C132.908 43.5369 133.205 44.1832 133.773 44.5215C134.201 44.7767 134.739 44.7212 135.191 44.5493C135.735 44.3357 136.239 44.0084 136.639 43.5785C137.432 42.7354 137.86 41.626 138.126 40.5194C138.417 39.2492 138.523 37.9373 138.492 36.6338C138.162 36.4757 137.804 36.3897 137.452 36.2982C136.52 36.0957 135.479 36.0846 134.633 36.5839Z" fill="#C9D1D9"/>
<path fill-rule="evenodd" clip-rule="evenodd" d="M20.0473 28.9347C22.3913 28.9458 24.7326 28.9541 27.0767 28.9652C28.0726 28.943 29.0713 29.1316 29.9978 29.4949C30.7024 29.7889 31.3959 30.2049 31.8315 30.8484C32.2892 31.5029 32.4417 32.3294 32.3668 33.1143C32.3086 34.1876 31.9868 35.2776 31.3099 36.1291C30.977 36.5645 30.5415 36.9084 30.0838 37.2024C29.8841 37.3355 29.6732 37.4603 29.5207 37.6489C29.6705 37.8042 29.8425 37.9318 30.0228 38.0511C30.622 38.4532 31.2045 38.9164 31.5873 39.5432C32.0978 40.3281 32.2448 41.3127 32.0867 42.2307C31.8731 43.4427 31.321 44.6242 30.4084 45.4701C28.9964 46.7542 27.0296 47.2506 25.1571 47.2396C22.7714 47.2201 20.3857 47.2174 18 47.2063C18.6824 41.1157 19.3648 35.0252 20.0473 28.9347ZM23.3512 32.0382C23.218 33.4277 23.0876 34.8144 22.9545 36.2039C22.9767 36.2261 23.021 36.2705 23.046 36.2927C24.0058 36.2927 24.9657 36.2927 25.9255 36.2955C26.4109 36.3177 26.902 36.2095 27.3375 36.0015C27.9783 35.6492 28.2973 34.9365 28.461 34.257C28.6108 33.705 28.6135 33.0588 28.2446 32.5901C27.9145 32.188 27.4235 31.8607 26.8853 31.8801C25.7757 31.869 24.6661 31.8468 23.5564 31.8302C23.4344 31.8052 23.3456 31.9273 23.3512 32.0382ZM22.616 39.5155C22.4718 41.0492 22.3248 42.5857 22.1777 44.1194C22.1611 44.2026 22.1722 44.3468 22.2859 44.3413C23.4788 44.3468 24.6716 44.3468 25.8617 44.3413C26.3693 44.2719 26.9214 44.2026 27.3208 43.8504C27.8063 43.4371 28.0698 42.8353 28.2834 42.2501C28.4471 41.8063 28.5026 41.3043 28.35 40.8523C28.1947 40.3808 27.8202 40.0175 27.4207 39.7429C27.2182 39.6208 27.0046 39.4739 26.7549 39.4822C25.4067 39.4655 24.0585 39.4433 22.7104 39.4212C22.6854 39.4461 22.6382 39.4933 22.616 39.5155Z" fill="#C9D1D9"/>
<path fill-rule="evenodd" clip-rule="evenodd" d="M40.3227 33.4888C41.4684 33.303 42.639 33.3418 43.7847 33.5027C45.1273 33.8244 46.4672 34.1572 47.8099 34.4817C47.3216 38.7223 46.8306 42.9602 46.3424 47.2008C45.169 47.1953 43.9955 47.1786 42.8221 47.1786C42.8942 46.4936 42.9525 45.8085 43.0246 45.1235C42.9969 45.0874 42.9414 45.0181 42.9164 44.9848C42.1092 45.9749 41.0717 46.807 39.865 47.248C38.8164 47.6335 37.593 47.6307 36.6054 47.0732C35.6761 46.574 35.0547 45.6532 34.6997 44.6825C34.1698 43.2126 34.1781 41.5956 34.4944 40.0786C34.8217 38.4672 35.3793 36.8502 36.4501 35.5745C37.4155 34.4179 38.8469 33.719 40.3227 33.4888ZM39.3739 37.2219C38.7526 37.8542 38.4585 38.7168 38.2588 39.5627C38.0119 40.5639 37.8676 41.6067 37.998 42.6357C38.0701 43.1183 38.2144 43.6092 38.5195 43.9975C38.772 44.3192 39.1326 44.5716 39.5459 44.6243C40.1424 44.7075 40.7388 44.4995 41.2548 44.2138C42.0814 43.7035 42.5919 42.8215 42.9331 41.934C43.5683 40.2616 43.7681 38.4589 43.8541 36.6811C43.7875 36.6367 43.7264 36.584 43.6488 36.559C42.9358 36.2983 42.1674 36.1763 41.4101 36.2484C40.6417 36.3094 39.8982 36.6533 39.3739 37.2219Z" fill="#C9D1D9"/>
<path fill-rule="evenodd" clip-rule="evenodd" d="M58.2822 33.6745C59.3585 33.3001 60.6041 33.2335 61.6499 33.7383C62.4294 34.1099 62.9038 34.9004 63.1424 35.7047C63.5252 37.0193 63.4808 38.4088 63.3754 39.7595C63.1424 42.2667 62.8622 44.7684 62.5348 47.2673C61.3531 47.2534 60.1713 47.2395 58.9896 47.2284C59.1949 45.5338 59.4002 43.8365 59.5832 42.1391C59.7136 40.9438 59.8551 39.7512 59.9328 38.553C60.0021 37.7404 59.6249 36.8973 58.9535 36.4313C58.5679 36.1623 58.0436 36.1429 57.6248 36.3426C57.2059 36.534 56.8674 36.8529 56.5651 37.194C56.0546 37.7792 55.6691 38.4615 55.3223 39.1521C54.8757 40.2227 54.7092 41.3847 54.5677 42.5274C54.3985 44.1111 54.221 45.6947 54.074 47.2839C52.8922 47.2562 51.7105 47.2257 50.5315 47.2035C51.0031 42.6855 51.4802 38.1675 51.9435 33.6468C53.1363 33.6274 54.3292 33.6079 55.5248 33.5802C55.4277 34.2375 55.3584 34.8976 55.2696 35.5549C55.2613 35.6631 55.2169 35.7851 55.3029 35.8739C55.3667 35.8323 55.4222 35.7796 55.4749 35.7213C56.2044 34.8061 57.1781 34.0739 58.2822 33.6745Z" fill="#C9D1D9"/>
<path fill-rule="evenodd" clip-rule="evenodd" d="M104.82 33.4527C106.066 33.3584 107.364 33.3417 108.554 33.7827C109.525 34.1349 110.407 34.7811 110.943 35.6742C111.592 36.7115 111.778 37.9817 111.645 39.1854C111.553 39.9925 111.489 40.8051 111.376 41.6122C111.181 42.9434 110.566 44.2026 109.675 45.2094C108.418 46.6183 106.568 47.5003 104.671 47.5169C103.991 47.5141 103.306 47.5419 102.629 47.4392C101.508 47.2756 100.421 46.7875 99.6136 45.9832C98.8174 45.1761 98.3403 44.0861 98.2099 42.9656C98.0962 42.0448 98.2487 41.1241 98.3125 40.2088C98.4096 38.897 98.8257 37.6018 99.5747 36.5173C100.754 34.7839 102.748 33.6773 104.82 33.4527ZM104.757 36.1374C104.108 36.2844 103.58 36.7309 103.162 37.2246C102.482 38.0427 102.094 39.0883 102.024 40.145C101.958 41.149 101.794 42.1752 102.03 43.1681C102.16 43.7367 102.496 44.2858 103.026 44.5576C103.517 44.8072 104.085 44.7296 104.615 44.7379C105.298 44.7379 105.938 44.3995 106.416 43.9308C107.209 43.1847 107.661 42.1281 107.794 41.0575C107.902 40.1395 108.099 39.2159 107.98 38.2896C107.905 37.6683 107.681 37.0332 107.206 36.6033C106.862 36.2622 106.377 36.0902 105.894 36.0902C105.514 36.0902 105.131 36.0597 104.757 36.1374Z" fill="#C9D1D9"/>
<path fill-rule="evenodd" clip-rule="evenodd" d="M120 33.4775C120.647 33.3888 121.301 33.3943 121.953 33.411C123.152 33.447 124.369 33.7993 125.321 34.5481C126.228 35.2526 126.799 36.3342 126.982 37.4602C127.091 38.0954 127.08 38.7444 127.002 39.385C126.913 40.1505 126.858 40.9243 126.744 41.6898C126.389 43.928 124.86 45.9359 122.802 46.8817C121.92 47.2949 120.946 47.5168 119.972 47.5168C119.307 47.5141 118.638 47.539 117.981 47.4336C116.882 47.2672 115.811 46.7874 115.015 46.0025C114.222 45.2093 113.736 44.136 113.598 43.0294C113.467 42.0947 113.623 41.1545 113.689 40.2226C113.786 38.944 114.177 37.6793 114.89 36.6088C116.025 34.8809 117.964 33.7521 120 33.4775ZM120.175 36.129C119.809 36.2039 119.468 36.3814 119.174 36.6088C118.352 37.255 117.803 38.2035 117.551 39.2075C117.423 39.6846 117.401 40.1838 117.362 40.6747C117.29 41.5511 117.198 42.458 117.451 43.3178C117.598 43.842 117.936 44.3273 118.433 44.5714C118.91 44.8044 119.456 44.7295 119.972 44.7378C120.669 44.7434 121.326 44.3967 121.812 43.9141C122.599 43.1653 123.046 42.1113 123.174 41.0436C123.282 40.1339 123.479 39.2186 123.36 38.2978C123.287 37.6821 123.068 37.0553 122.608 36.6254C122.269 36.2815 121.792 36.0985 121.315 36.0902C120.932 36.0902 120.549 36.0624 120.175 36.129Z" fill="#C9D1D9"/>
<path fill-rule="evenodd" clip-rule="evenodd" d="M70.0052 34.2596C71.1703 33.6772 72.4963 33.5025 73.7863 33.5136C75.7891 33.5441 77.7698 33.9795 79.659 34.6285C79.29 37.3354 78.8933 40.0423 78.6936 42.7686C78.5965 44.0499 78.5798 45.3368 78.3635 46.6043C78.1776 47.7331 77.8586 48.8564 77.2816 49.852C76.699 50.8699 75.8419 51.7297 74.8265 52.3204C73.8057 52.8612 72.6267 52.9888 71.4866 52.9999C69.7001 52.9888 67.9275 52.6671 66.2048 52.215C66.46 51.3719 66.6847 50.5204 66.9288 49.6773C68.4989 50.1654 70.1689 50.2875 71.8028 50.1571C72.3882 50.1349 72.9873 49.9713 73.4395 49.5858C74.1164 49.0505 74.5048 48.2379 74.7073 47.4169C74.8848 46.718 74.9486 45.9914 74.9514 45.273C74.9653 45.1538 74.9153 45.0484 74.8626 44.9485C74.2024 45.739 73.4146 46.4379 72.5047 46.9288C71.653 47.3892 70.6544 47.636 69.689 47.4724C68.9012 47.3365 68.1577 46.9621 67.5613 46.4296C66.8067 45.7168 66.3962 44.7128 66.2131 43.706C65.9496 42.164 66.1243 40.5748 66.5654 39.0827C66.9288 37.8929 67.467 36.7446 68.2382 35.7628C68.7153 35.1471 69.3089 34.6118 70.0052 34.2596ZM72.5851 36.3869C71.6891 36.6614 70.9734 37.3742 70.5656 38.2063C70.0663 39.2297 69.7694 40.3557 69.7278 41.4956C69.714 42.2195 69.7778 42.9711 70.1217 43.6228C70.3908 44.1359 70.8846 44.5741 71.481 44.624C72.28 44.6906 73.0844 44.3495 73.642 43.7837C74.4077 43.0349 74.8155 42.0142 75.1123 41.0047C75.5145 39.5791 75.6643 38.0925 75.7142 36.6143C75.6393 36.5533 75.5561 36.5033 75.4618 36.4812C74.5408 36.1844 73.5227 36.0901 72.5851 36.3869Z" fill="#C9D1D9"/>
<path fill-rule="evenodd" clip-rule="evenodd" d="M88.545 33.5914C90.1623 33.3945 91.8018 33.5859 93.3886 33.927C94.2291 34.1101 95.0585 34.3458 95.8713 34.6287C95.4441 37.7183 94.992 40.8052 94.8283 43.9226C94.7478 45.5312 94.6036 47.1647 94.0377 48.6874C93.4801 50.2183 92.3982 51.5662 90.9668 52.3567C89.81 52.9363 88.4812 53.0251 87.208 52.9918C85.5879 52.9252 83.9845 52.634 82.4199 52.2125C82.6613 51.3665 82.8998 50.5206 83.1384 49.6747C84.8417 50.21 86.667 50.3071 88.4341 50.1129C89.3079 50.0048 90.0319 49.3835 90.4453 48.6347C91.0445 47.5419 91.1693 46.2634 91.161 45.0375C91.1194 45.0347 91.0389 45.0264 91.0001 45.0236C90.2983 45.8695 89.4272 46.5962 88.4285 47.0704C87.4937 47.517 86.3924 47.6723 85.3937 47.3533C84.5532 47.0815 83.757 46.5768 83.2577 45.8363C82.6529 44.9598 82.3922 43.8921 82.3173 42.8409C82.1952 40.7969 82.7001 38.7306 83.6738 36.9334C84.2092 35.9794 84.8972 35.0724 85.8292 34.4789C86.6448 33.9631 87.5963 33.7134 88.545 33.5914ZM87.6352 37.0582C86.9833 37.6296 86.6199 38.4422 86.348 39.2493C85.9929 40.3337 85.8292 41.4958 86.0068 42.6301C86.1205 43.3207 86.434 44.0307 87.0471 44.4107C87.5714 44.7324 88.2316 44.6714 88.7864 44.4689C89.3717 44.2665 89.8516 43.8394 90.2289 43.3568C90.6783 42.7771 90.9668 42.0949 91.1998 41.4015C91.6964 39.8539 91.8711 38.2203 91.9211 36.6034C91.5826 36.4009 91.1832 36.3482 90.8059 36.2706C89.7074 36.0848 88.4701 36.2734 87.6352 37.0582Z" fill="#C9D1D9"/>
</svg>
