<svg width="160" height="80" viewBox="0 0 160 80" fill="none" xmlns="http://www.w3.org/2000/svg">
<path fill-rule="evenodd" clip-rule="evenodd" d="M29.4715 57.2286C29.9658 56.9878 30.1894 56.6225 30.1894 56.1937C30.1894 55.1112 29.0869 54.76 27.7577 54.76H26.5671V60.0596H28.2501C29.6856 60.0596 30.8557 59.6348 30.8557 58.5818C30.8557 57.9523 30.3412 57.3827 29.4715 57.2286ZM27.3716 55.309H27.6932C28.6901 55.309 29.3762 55.3931 29.3762 56.1934C29.3762 57.0174 28.604 57.0947 27.6814 57.0947H27.3716V55.309ZM28.1856 59.5106H27.3716V57.6004H28.0785C28.9684 57.6004 30.0398 57.7217 30.0398 58.5392C30.0398 59.346 29.0869 59.5106 28.1856 59.5106ZM33.4278 56.6662C32.0121 56.6662 31.2293 57.4733 31.2293 58.4512C31.2293 59.3965 32.0976 60.1502 33.4484 60.1502C34.3705 60.1502 35.0984 59.8084 35.5376 59.2218L34.8743 58.9471C34.585 59.3431 34.1564 59.6308 33.5023 59.6308C32.623 59.6308 32.0338 59.1348 32.022 58.5288H35.5695C35.6451 57.5434 34.8747 56.6662 33.4278 56.6662ZM32.055 58.0458C32.1518 57.5704 32.7733 57.1856 33.4385 57.1856C34.1139 57.1856 34.6606 57.5704 34.7676 58.0458H32.055ZM35.4753 56.7561L37.5539 59.7488L36.0964 61.9132H36.9636L40.3072 56.7565H39.4294L37.9712 59.1251L36.3751 56.7565H35.4753V56.7561ZM42.5916 56.6662C41.2624 56.6662 40.213 57.4463 40.213 58.4147C40.213 59.3861 41.273 60.1502 42.5916 60.1502C43.9101 60.1502 44.9701 59.3861 44.9701 58.4147C44.9701 57.4463 43.9207 56.6662 42.5916 56.6662ZM42.5916 59.6308C41.6371 59.6308 40.9834 59.0818 40.9834 58.4082C40.9834 57.7376 41.6371 57.1853 42.5916 57.1853C43.546 57.1853 44.1998 57.7372 44.1998 58.4082C44.1998 59.0818 43.546 59.6308 42.5916 59.6308ZM46.3961 57.155V56.7561H45.6257V60.0596H46.3961V58.4912C46.3961 57.9018 46.4617 57.1853 47.5214 57.1853C48.4238 57.1853 48.4758 57.6607 48.4758 58.1971V60.0596H49.248V58.1C49.248 57.3253 48.9576 56.6662 47.7051 56.6662C47.1463 56.6662 46.7279 56.8398 46.4185 57.155H46.3961ZM53.6638 54.264V57.2286H53.6418C53.2773 56.8774 52.6987 56.6662 52.0981 56.6662C50.7374 56.6662 49.9223 57.4733 49.9223 58.4147C49.9223 59.3261 50.7591 60.1502 52.0886 60.1502C52.6987 60.1502 53.2678 59.9596 53.6418 59.6012H53.6638V60.06H54.4353V54.2644H53.6638V54.264ZM52.196 59.6308C51.231 59.6308 50.7055 59.0182 50.7055 58.371C50.7055 57.7545 51.2834 57.1856 52.1839 57.1856C53.1384 57.1856 53.7067 57.7217 53.7067 58.3786C53.7067 59.0442 53.1809 59.6308 52.196 59.6308ZM61.3814 56.7561V57.2286H61.3594C60.9847 56.8774 60.427 56.6662 59.8051 56.6662C58.4539 56.6662 57.6286 57.4733 57.6286 58.4147C57.6286 59.3261 58.4664 60.1502 59.7945 60.1502C60.4376 60.1502 60.9627 59.9625 61.359 59.6012H61.381V60.06H62.1514V56.7565H61.3814V56.7561ZM59.9023 59.6308C58.9478 59.6308 58.422 59.0182 58.422 58.371C58.422 57.7545 59.001 57.1856 59.8905 57.1856C60.8453 57.1856 61.4133 57.7217 61.4133 58.3786C61.4137 59.0442 60.8985 59.6308 59.9023 59.6308ZM63.9422 57.155V56.7561H63.1718V60.0596H63.9422V58.4912C63.9422 57.9018 64.0067 57.1853 65.0686 57.1853C65.9691 57.1853 66.0223 57.6607 66.0223 58.1971V60.0596H66.7945V58.1C66.7945 57.3253 66.5052 56.6662 65.2508 56.6662C64.6931 56.6662 64.2766 56.8398 63.9642 57.155H63.9422ZM67.1036 56.7561L69.1833 59.7488L67.7145 61.9132H68.5941L71.9385 56.7565H71.0599L69.591 59.1251L67.9935 56.7565H67.1036V56.7561ZM76.6332 57.5239L77.2764 57.2755C77.0725 56.9308 76.5904 56.6666 76.0752 56.6666C75.3466 56.6666 74.7251 57.0449 74.7251 57.6004C74.7251 58.6389 76.7726 58.3851 76.7726 59.1247C76.7726 59.4236 76.451 59.6308 76.0326 59.6308C75.5288 59.6308 75.3041 59.4095 75.1112 59.1013L74.4241 59.3121C74.6708 59.8315 75.2608 60.1499 76.0216 60.1499C76.869 60.1499 77.555 59.6979 77.555 59.0746C77.555 58.518 77.0388 58.2873 76.5038 58.1267C75.9791 57.9653 75.4537 57.8549 75.4537 57.5506C75.4537 57.3394 75.743 57.1853 76.0114 57.1853C76.29 57.1856 76.5262 57.3463 76.6332 57.5239ZM79.0444 60.0596V57.2752H79.8595V56.7561H79.0444V55.5671H78.2843V56.7561H77.8128V57.2752H78.2843V60.0596H79.0444ZM82.1211 56.6662C80.792 56.6662 79.7426 57.4463 79.7426 58.4147C79.7426 59.3861 80.8022 60.1502 82.1211 60.1502C83.44 60.1502 84.4997 59.3861 84.4997 58.4147C84.4997 57.4463 83.4507 56.6662 82.1211 56.6662ZM82.1211 59.6308C81.1667 59.6308 80.5129 59.0818 80.5129 58.4082C80.5129 57.7376 81.1667 57.1853 82.1211 57.1853C83.0759 57.1853 83.7293 57.7372 83.7293 58.4082C83.7293 59.0818 83.0759 59.6308 82.1211 59.6308ZM85.8831 57.1145V56.7557H85.1109V60.0593H85.8831V58.4079C85.8831 57.979 85.9257 57.1849 86.773 57.1849C86.9762 57.1849 87.0832 57.2513 87.2339 57.3289L87.5984 56.8196C87.3843 56.729 87.1698 56.6655 86.9124 56.6655C86.4086 56.6655 86.1721 56.8525 85.9037 57.1138H85.8831V57.1145ZM89.7731 56.6662C88.349 56.6662 87.5768 57.4733 87.5768 58.4512C87.5768 59.3965 88.4348 60.1502 89.7856 60.1502C90.718 60.1502 91.4458 59.8084 91.8748 59.2218L91.2211 58.9471C90.9204 59.3431 90.5039 59.6308 89.8483 59.6308C88.9705 59.6308 88.3699 59.1348 88.3592 58.5288H91.9174C91.9925 57.5434 91.2214 56.6662 89.7731 56.6662ZM88.4021 58.0458C88.4993 57.5704 89.1102 57.1856 89.7731 57.1856C90.4489 57.1856 91.0066 57.5704 91.1026 58.0458H88.4021ZM97.1057 56.6662C95.7773 56.6662 94.7249 57.4463 94.7249 58.4147C94.7249 59.3861 95.7868 60.1502 97.1057 60.1502C98.4246 60.1502 99.485 59.3861 99.485 58.4147C99.4854 57.4463 98.4349 56.6662 97.1057 56.6662ZM97.1057 59.6308C96.1509 59.6308 95.4971 59.0818 95.4971 58.4082C95.4971 57.7376 96.1509 57.1853 97.1057 57.1853C98.0594 57.1853 98.7139 57.7372 98.7139 58.4082C98.7139 59.0818 98.0594 59.6308 97.1057 59.6308ZM100.976 60.0596V57.2752H102.122V56.7561H100.976V55.6407C100.976 55.0578 100.976 54.7365 101.607 54.7365C101.801 54.7365 101.95 54.7694 102.122 54.813V54.2406C101.943 54.1985 101.759 54.1759 101.575 54.1734C101.113 54.1734 100.665 54.2936 100.408 54.5853C100.202 54.826 100.202 55.1682 100.202 55.4426V56.7557H99.7857V57.2748H100.202V60.0593H100.976V60.0596ZM105.08 56.7561H105.853V60.0596H105.08V56.7561ZM106.012 55.5101C106.012 55.7378 105.765 55.9154 105.466 55.9154C105.167 55.9154 104.92 55.7378 104.92 55.5101C104.92 55.2964 105.167 55.1112 105.466 55.1112C105.766 55.1112 106.012 55.296 106.012 55.5101ZM107.867 60.0596V57.2752H108.67V56.7561H107.867V55.5671H107.095V56.7561H106.623V57.2752H107.095V60.0596H107.867ZM110.792 57.5239L111.436 57.2755C111.233 56.9308 110.75 56.6666 110.236 56.6666C109.496 56.6666 108.885 57.0449 108.885 57.6004C108.885 58.6389 110.922 58.3851 110.922 59.1247C110.922 59.4236 110.61 59.6308 110.194 59.6308C109.679 59.6308 109.464 59.4095 109.272 59.1013L108.586 59.3121C108.821 59.8315 109.421 60.1499 110.182 60.1499C111.019 60.1499 111.715 59.6979 111.715 59.0746C111.715 58.518 111.189 58.2873 110.666 58.1267C110.14 57.9653 109.616 57.8549 109.616 57.5506C109.616 57.3394 109.905 57.1853 110.173 57.1853C110.451 57.1856 110.685 57.3463 110.792 57.5239ZM115.692 57.9794V54.264H114.919V60.0596H115.692V58.7024L115.896 58.5519L117.717 60.0593H118.736L116.432 58.1631L118.371 56.7557H117.342L115.692 57.9794ZM119.229 56.7561H120V60.0596H119.229V56.7561ZM120.161 55.5101C120.161 55.7378 119.915 55.9154 119.614 55.9154C119.314 55.9154 119.068 55.7378 119.068 55.5101C119.068 55.2964 119.314 55.1112 119.614 55.1112C119.915 55.1112 120.161 55.296 120.161 55.5101ZM121.973 57.155V56.7561H121.2V60.0596H121.973V58.4912C121.973 57.9018 122.038 57.1853 123.097 57.1853C123.997 57.1853 124.052 57.6607 124.052 58.1971V60.0596H124.824V58.1C124.824 57.3253 124.533 56.6662 123.279 56.6662C122.722 56.6662 122.304 56.8398 121.995 57.155H121.973ZM129.24 54.264V57.2286H129.228C128.854 56.8774 128.276 56.6662 127.674 56.6662C126.314 56.6662 125.499 57.4733 125.499 58.4147C125.499 59.3261 126.335 60.1502 127.664 60.1502C128.276 60.1502 128.844 59.9596 129.228 59.6012H129.24V60.06H130.011V54.2644H129.24V54.264ZM127.772 59.6308C126.807 59.6308 126.281 59.0182 126.281 58.371C126.281 57.7545 126.859 57.1856 127.759 57.1856C128.714 57.1856 129.282 57.7217 129.282 58.3786C129.282 59.0442 128.757 59.6308 127.772 59.6308ZM132.327 59.7485C132.327 59.5402 132.08 59.363 131.791 59.363C131.489 59.363 131.243 59.5402 131.243 59.7485C131.243 59.9625 131.489 60.1502 131.791 60.1502C132.08 60.1502 132.327 59.9625 132.327 59.7485ZM132.175 52.1632C131.297 52.1632 130.601 52.8462 130.601 53.7045C130.601 54.5687 131.297 55.2484 132.175 55.2484C133.055 55.2484 133.751 54.5683 133.751 53.7045C133.751 52.8462 133.055 52.1632 132.175 52.1632ZM132.175 55.0137C131.457 55.0137 130.836 54.4348 130.836 53.7042C130.836 52.9765 131.457 52.3975 132.175 52.3975C132.893 52.3975 133.516 52.9765 133.516 53.7042C133.516 54.4348 132.893 55.0137 132.175 55.0137ZM132.947 53.2992C132.947 52.9339 132.649 52.8537 132.337 52.8537H131.587V54.5416H131.833V53.7616H132.123L132.636 54.5416H132.925L132.402 53.7616C132.711 53.754 132.947 53.6334 132.947 53.2992ZM132.123 53.5269H131.833V53.088H132.283C132.477 53.088 132.701 53.118 132.701 53.2952C132.701 53.5634 132.327 53.5269 132.123 53.5269ZM26.7065 39.3743H32.495C35.1317 39.3743 37.8322 39.9411 37.8322 42.7584C37.8322 43.8304 37.2335 44.8862 36.0418 45.2241V45.3252C37.522 45.7904 38.4651 46.7654 38.4651 48.2226C38.4651 50.7371 35.8596 51.5961 33.4704 51.5961H26.7065V39.3743ZM31.7657 44.0755C32.4954 44.0755 33.3094 44.012 33.3094 43.1677C33.3094 42.2563 32.377 42.3212 31.6587 42.3212H31.3169V44.0755H31.7657ZM31.3169 48.6785H31.8732C32.6883 48.6785 33.8675 48.6615 33.8675 47.6566C33.8675 46.6365 32.6036 46.6553 31.798 46.6553H31.3169V48.6785ZM39.2582 39.3743V51.5961H49.4409V48.258H44.7138V47.0567H48.8828V43.8773H44.7138V42.7118H49.2803V39.3743H39.2582ZM56.3225 39.3743H49.4303L55.2702 46.3265V51.5961H61.2314V46.3265L66.9639 39.3743H60.1168L58.9156 41.4152C58.7011 41.7906 58.5416 42.1794 58.3689 42.566H58.187L56.3225 39.3743ZM84.2012 45.5176C84.2012 49.4427 79.7305 51.7878 74.2426 51.7878C68.7444 51.7878 64.2861 49.4423 64.2861 45.5176C64.2861 41.6733 68.7767 39.1773 74.2426 39.1773C79.7096 39.1773 84.2012 41.673 84.2012 45.5176ZM70.8781 45.5811C70.8781 46.9766 72.2604 47.9309 74.2422 47.9309C76.2262 47.9309 77.6086 46.9762 77.6086 45.5811C77.6086 44.2867 76.3219 43.2013 74.2422 43.2013C72.1625 43.2013 70.8781 44.2867 70.8781 45.5811ZM105.424 39.3743H115.757C125.134 39.3743 132.315 41.1723 132.315 45.663C132.315 49.2918 126.462 51.5961 118.274 51.5961H105.424V39.3743ZM115.574 47.9309H116.205C119.572 47.9309 122.165 47.2509 122.165 45.6464C122.165 43.9315 119.904 43.2013 116.205 43.2013H115.574V47.9309ZM130.119 39.5072C130.117 39.2924 130.159 39.0794 130.242 38.8808C130.325 38.6821 130.447 38.5017 130.602 38.35C130.756 38.1983 130.94 38.0784 131.142 37.9973C131.344 37.9162 131.561 37.8754 131.779 37.8774C132.711 37.8774 133.442 38.6023 133.442 39.5072C133.442 40.4132 132.711 41.1333 131.779 41.1333C130.846 41.1333 130.119 40.4132 130.119 39.5072ZM133.185 39.5072C133.185 38.7401 132.541 38.1312 131.779 38.1312C131.019 38.1312 130.376 38.7401 130.376 39.5072C130.376 40.276 131.019 40.8839 131.779 40.8839C132.541 40.8839 133.185 40.2757 133.185 39.5072ZM132.562 40.3861H132.263L131.716 39.5678H131.416V40.3861H131.159V38.6077H131.951C132.273 38.6077 132.594 38.6918 132.594 39.0784C132.594 39.4249 132.347 39.5584 132.026 39.5678L132.562 40.3861ZM131.716 39.3137C131.941 39.3137 132.337 39.3588 132.337 39.0729C132.337 38.8889 132.09 38.8553 131.898 38.8553H131.415V39.3141H131.716V39.3137ZM91.7252 39.3827H85.0039V51.6037H91.693V45.3851L97.6201 51.6041H104.298V39.3827H97.6201V45.7136L91.7252 39.3827ZM26.6742 19.7023H28.6905C31.7778 19.7023 34.7031 20.5004 34.7031 24.1465C34.7031 25.3257 34.0493 26.6988 32.9347 27.2182V27.2608C34.8751 27.6045 36.2262 29.4699 36.2262 31.3577C36.2262 34.601 33.4168 35.8871 30.5117 35.8871H26.6742V19.7023ZM28.7334 26.8742H29.2475C31.197 26.8742 32.7847 26.484 32.7847 24.1674C32.7847 21.8941 31.2095 21.5082 29.2999 21.5082H28.7334V26.8742ZM28.7334 34.0845H30.2969C32.1944 34.0845 34.1766 33.5282 34.1766 31.2282C34.1766 28.9552 31.8196 28.4834 29.998 28.4834H28.7334V34.0845ZM37.4252 19.7023V35.8867H46.2568V34.0426H39.4727V27.9254H46.065V26.0758H39.4727V21.5464H46.2564V19.7023H37.4252ZM48.1763 19.7023H51.5731C56.6122 19.7023 60.8028 22.3232 60.8028 27.7113C60.8028 33.2268 56.6965 35.8867 51.5104 35.8867H48.1763V19.7023ZM50.2237 34.0426H50.942C55.133 34.0426 58.7564 32.493 58.7564 27.7965C58.7564 23.0737 55.133 21.5464 50.942 21.5464H50.2237V34.0426ZM66.5675 19.7023H68.5725C71.6712 19.7023 74.5964 20.5004 74.5964 24.1465C74.5964 25.3257 73.9426 26.6988 72.8287 27.2182V27.2608C74.768 27.6045 76.1192 29.4699 76.1192 31.3577C76.1192 34.601 73.3098 35.8871 70.4054 35.8871H66.5675V19.7023ZM68.6172 26.8742H69.1408C71.0812 26.8742 72.6788 26.484 72.6788 24.1674C72.6788 21.8941 71.1028 21.5082 69.1833 21.5082H68.6168V26.8742H68.6172ZM68.6172 34.0845H70.1913C72.0888 34.0845 74.0728 33.5282 74.0728 31.2282C74.0728 28.9552 71.7141 28.4834 69.8811 28.4834H68.6172V34.0845ZM80.0839 31.8295L78.2092 35.8864H76.0117L83.8566 19.0157L91.7032 35.8864H89.5069L87.631 31.8295H80.0839ZM83.8566 23.4386L80.9313 29.9836H86.7833L83.8566 23.4386ZM95.3259 35.8867V21.5464H99.2283V19.7023H89.3771V21.5464H93.2795V35.8867H95.3259ZM110.213 26.227H102.389V19.7023H100.342V35.8867H102.389V28.1185H110.213V35.8867H112.261V19.7023H110.213V26.227ZM127.578 33.6993C126.335 35.1363 124.598 36.2307 122.658 36.2307C119.904 36.2307 117.622 34.257 117.622 31.4646C117.622 29.4053 118.928 28.2903 120.494 27.1746L121.521 26.4454C120.589 25.4755 119.711 24.2746 119.711 22.9026C119.711 20.6671 121.352 19.359 123.505 19.359C125.51 19.359 127.299 20.6036 127.299 22.7308C127.299 24.5536 125.692 25.7762 124.309 26.7631L127.74 30.8412L129.657 28.6545L130.966 29.9839L128.961 32.306L131.898 35.8871H129.368L127.578 33.6993ZM122.531 28.0329C121.394 28.805 119.539 29.8998 119.539 31.4426C119.539 32.9922 121.017 34.4295 122.593 34.4295C124.116 34.4295 125.338 33.2918 126.366 32.2786L122.722 27.9041L122.531 28.0329ZM123.419 25.1969C124.244 24.5536 125.381 23.8887 125.381 22.7095C125.381 21.5728 124.555 20.9462 123.464 20.9462C122.486 20.9462 121.629 21.6374 121.629 22.6669C121.629 23.4816 122.133 24.0822 122.615 24.6828L123.162 25.369L123.419 25.1969Z" fill="#C9D1D9"/>
</svg>
