<svg width="160" height="80" viewBox="0 0 160 80" fill="none" xmlns="http://www.w3.org/2000/svg">
<path d="M35 14.6566V37.5366H47.0221C51.754 37.5366 56.1267 35.8817 56.1267 31.0207C56.1267 27.7345 53.7509 26.2343 51.1378 25.4491C52.7299 24.8127 54.536 23.4759 54.536 20.6735C54.536 17.0865 50.9644 14.6566 46.1557 14.6566H35ZM42.3649 19.9854H45.0726C46.1749 19.9854 47.0154 20.8458 47.0154 21.719C47.0154 22.5302 46.142 23.3985 45.0725 23.3985H42.365L42.3649 19.9854ZM42.3649 28.1472H45.939C47.1868 28.1472 48.2339 29.0915 48.2339 30.1708C48.2339 31.3169 47.2546 32.2686 45.7224 32.2686H42.3649V28.1472ZM40.9569 40.0324V62.9123H52.9791C57.7109 62.9123 62.0836 61.2574 62.0836 56.3964C62.0836 53.1102 59.7079 51.6101 57.0947 50.8248C58.6868 50.1884 60.4929 48.8516 60.4929 46.0491C60.4929 42.4623 56.9213 40.0324 52.1126 40.0324H40.9569ZM48.3219 45.3611H51.0296C52.1318 45.3611 52.9723 46.2214 52.9723 47.0947C52.9723 47.9059 52.0989 48.7742 51.0295 48.7742H48.3219V45.3611ZM48.3219 53.5229H51.896C53.1437 53.5229 54.1907 54.4672 54.1907 55.5465C54.1907 56.6927 53.2116 57.6442 51.6794 57.6442H48.3219V53.5229ZM56.7049 37.5339V14.6538H75.2255V20.1795H64.0481V23.1798H73.1243V28.3603H64.0481V32.0296H75.2255V37.5338L56.7049 37.5339ZM85.2582 38.1888C90.4714 38.1888 94.6412 35.2257 94.6412 30.4238C94.6412 22.6744 84.5241 23.8669 84.5241 21.454C84.5241 20.522 85.5078 20.0275 86.5166 20.0275C88.255 20.0275 89.5111 21.1687 89.5111 21.1687L93.8637 17.0389C92.1229 15.388 89.3734 14 85.6694 14C80.1069 14 76.4678 17.2898 76.4678 21.2583C76.4678 29.1064 86.4391 27.9673 86.4391 30.4298C86.4391 31.2931 85.6056 32.1614 84.094 32.1614C82.378 32.1614 81.0184 31.129 79.9604 30.2532L75.5823 34.4124C77.3452 36.1235 80.1755 38.1888 85.2583 38.1888H85.2582ZM100.309 37.5339V20.158H94.2443V14.6538H113.74V20.158H107.674V37.5337L100.309 37.5339ZM62.3369 40.0161H69.6801V53.7226C69.6801 55.1144 71.0702 56.397 72.5196 56.397C73.8868 56.397 75.2687 55.2387 75.2687 53.6494V40.016H82.5904V53.5561C82.5904 58.9288 78.1138 63.2145 72.3256 63.2145C66.5043 63.2145 62.3369 58.5503 62.3369 53.2633V40.0161ZM91.6448 62.8961V54.7204L83.014 40.0161H90.4437L95.3273 47.8946L100.228 40.0161H107.674L99.0098 54.8045V62.8961H91.6448Z" fill="#C9D1D9"/>
<path d="M107.674 52.5381L103.342 56.8551V62.683L107.674 67H126V52.5381H107.674Z" fill="#C9D1D9"/>
<path d="M106.963 59.7663C106.963 60.3027 106.526 60.7376 105.988 60.7376C105.45 60.7376 105.013 60.3027 105.013 59.7663C105.013 59.2298 105.45 58.795 105.988 58.795C106.526 58.795 106.963 59.2298 106.963 59.7663Z" fill="#C9D1D9"/>
</svg>
