<svg width="160" height="80" viewBox="0 0 160 80" fill="none" xmlns="http://www.w3.org/2000/svg">
<path d="M138.157 30.176C136.09 27.6415 132.444 26.1881 128.154 26.1881C123.616 26.1881 119.531 27.7488 116.701 30.282L117.163 27.3575L115.936 26.9884C114.199 26.4649 112.271 26.1881 110.359 26.1881C107.074 26.1881 103.932 27.2155 101.393 28.9084L102.124 26.4741H82.4776L82.2447 27.2515C80.499 26.5415 78.5787 26.1881 76.415 26.1881C72.3704 26.1881 67.9927 27.7757 65.7197 30.8323C65.5708 30.6085 65.4149 30.388 65.2415 30.176C63.1742 27.6415 59.5283 26.1881 55.2385 26.1881C50.8348 26.1881 46.8524 27.6566 44.0352 30.0595L45.1319 23.316L43.8858 22.9515C41.7577 22.3292 39.3928 22 37.046 22C28.4367 22 20.6006 27.5348 19.2069 34.5996C18.6136 37.6053 19.3065 40.5166 21.1564 42.7985C22.7332 44.7427 25.0618 46.1287 27.8285 46.8367H19.2988V57.8711H62.7472L62.8145 57.7363L62.8229 57.8711H68.0528L68.762 56.7017L68.5426 57.8711H80.367L80.5404 56.949C81.5796 57.6296 82.9286 57.9993 84.4821 57.9993C85.8706 57.9993 87.1589 57.7081 88.2692 57.1905L88.1417 57.8711H104.72L104.749 57.7212C105.518 57.8966 106.325 58 107.096 58C107.565 58 108.047 57.9575 108.528 57.8717H114.848L115.317 56.8646H115.739L115.867 57.8717H135.362L136.332 52.7086H135.976L136.109 51.9992H136.364L137.334 46.8367H136.795C137.235 46.4343 137.555 45.9173 137.666 45.329C137.796 44.6301 137.617 43.9188 137.174 43.3783C137.059 43.2383 136.927 43.1152 136.784 43.0046C138.331 41.3981 139.403 39.4539 139.82 37.2682C140.329 34.5872 139.755 32.1346 138.157 30.176ZM126.878 52.3225H126.279L127.183 47.5219C127.388 47.4951 127.593 47.465 127.797 47.4322L126.878 52.3225ZM112.925 36.7061C112.863 37.0268 112.821 37.3435 112.789 37.6556C111.473 38.5456 110.241 38.9664 108.922 38.9664C108.03 38.9664 107.257 38.6719 106.856 38.1785C106.627 37.8984 106.55 37.585 106.621 37.2205C106.856 35.9909 108.505 34.9124 110.149 34.9124C111.178 34.9124 112.144 35.2802 113.092 36.0328C113.033 36.2559 112.968 36.4777 112.925 36.7061ZM114.257 46.8361L113.615 47.906L113.081 47.6037C112.73 47.4041 112.353 47.2503 111.964 47.1168C112.249 47.0481 112.515 46.9709 112.746 46.8858L113.495 46.611L114.23 43.3488C114.33 43.4889 114.425 43.6322 114.535 43.767C115.645 45.1275 117.244 46.168 119.176 46.8354L114.257 46.8361ZM120.768 47.2876L120.512 48.6455L120.157 47.1371C120.358 47.1901 120.56 47.2418 120.768 47.2876ZM127.023 35.0551C127.824 35.0551 128.441 35.2704 128.761 35.6611C129.054 36.021 129.043 36.4797 128.981 36.8023C128.726 38.1327 127.375 39.0619 125.693 39.0619C124.874 39.0619 124.227 38.8434 123.916 38.4625C123.702 38.1988 123.638 37.8291 123.727 37.3625C123.945 36.216 125.148 35.0551 127.023 35.0551ZM90.0245 47.8275C89.7942 47.6698 89.5438 47.5304 89.2824 47.4048H90.1048L90.0245 47.8275ZM85.5012 52.3212C85.3951 52.4167 85.2223 52.4809 85.0224 52.4926C85.1246 52.4036 85.2851 52.3304 85.5012 52.3212ZM84.2155 35.1794L83.2398 38.4278C83.1771 37.5601 82.9098 36.7716 82.4414 36.0701C82.2479 35.7828 82.0176 35.521 81.764 35.2724L84.2155 35.1794ZM56.0641 36.8017C55.8098 38.1327 54.4575 39.0619 52.7759 39.0619C51.958 39.0619 51.3104 38.8434 50.9998 38.4625C50.7843 38.1988 50.7209 37.8291 50.8102 37.3625C51.0296 36.2153 52.2324 35.0551 54.1075 35.0551C54.9085 35.0551 55.5258 35.2704 55.8447 35.6611C56.1372 36.021 56.1255 36.4804 56.0641 36.8017ZM67.3398 47.3642L67.3081 47.4322L67.3016 47.3583C67.3146 47.3596 67.3269 47.3622 67.3398 47.3642ZM81.8571 43.0393L80.7177 46.8361H76.3419C78.5787 46.0894 80.5844 44.8376 81.8571 43.0393ZM82.332 47.4048H82.576C82.4854 47.4434 82.3974 47.4826 82.3101 47.5239L82.332 47.4048ZM35.2544 37.4456C34.0057 37.4456 32.9238 37.0307 32.3603 36.3364C32.0342 35.9346 31.9248 35.4896 32.0258 34.9766C32.3519 33.3242 34.5304 31.9284 36.7827 31.9284C38.3032 31.9284 39.7118 32.5056 41.0874 33.6841C40.7237 34.3713 40.4345 35.0911 40.2242 35.8417C38.5439 36.9293 36.9567 37.4456 35.2544 37.4456ZM60.9931 45.2688L62.4146 45.916C63.2001 46.2733 64.073 46.5789 64.9866 46.8367H62.3422L62.0588 47.4106L62.0225 46.8367H57.4507C58.7292 46.4395 59.9165 45.9114 60.9931 45.2688ZM95.6388 52.3225L96.6702 46.8361H91.6648L95.1723 35.1454L96.2418 35.1866C96.0445 35.7206 95.8782 36.2644 95.7701 36.8252C95.2713 39.4343 95.8775 41.9524 97.4796 43.9149C98.5349 45.2086 99.9842 46.1915 101.68 46.8354H97.2693L96.2373 52.3218L95.6388 52.3225ZM39.8865 46.4258L40.6403 46.1575L41.2989 43.3266C41.4044 43.4751 41.5028 43.6257 41.6192 43.7677C42.7289 45.1281 44.3283 46.1686 46.259 46.8361H38.276C38.8797 46.7216 39.4349 46.5861 39.8865 46.4258ZM130.367 46.8361C131.016 46.6339 131.64 46.3996 132.24 46.1333C132.328 46.3466 132.435 46.5527 132.583 46.734C132.614 46.772 132.656 46.8008 132.689 46.8361H130.367Z" fill="white"/>
<path d="M60.6515 48.3137L60.953 53.1359H61.0293C61.1853 52.6432 61.3587 52.1288 61.602 51.6465L63.2454 48.3137H65.9157L66.3194 53.1359H66.3958C66.5349 52.6641 66.6915 52.1707 66.905 51.7106L68.5096 48.3137H72.1336L67.233 56.3934H64.1939L63.9261 51.9999H63.8115C63.6951 52.4187 63.5929 52.8251 63.4039 53.2216L61.8414 56.3934H58.878L57.0398 48.3137H60.6515Z" fill="#C9D1D9"/>
<path d="M71.8793 48.3137H75.2361L74.7249 51.0353H76.8608L77.3726 48.3137H80.7293L79.2114 56.3934H75.8546L76.382 53.5861H74.2455L73.7182 56.3934H70.3614L71.8793 48.3137Z" fill="#C9D1D9"/>
<path d="M90.5609 52.3749C90.0737 54.9682 87.4034 56.5218 84.4801 56.5218C81.5549 56.5218 79.4683 54.9676 79.9561 52.3749C80.433 49.8352 83.1343 48.1848 86.0459 48.1848C88.9576 48.1848 91.0371 49.8352 90.5609 52.3749ZM83.4578 52.4174C83.2838 53.3388 83.903 53.9716 84.9583 53.9716C86.0142 53.9716 86.8703 53.3388 87.0443 52.4174C87.2048 51.5595 86.6535 50.8423 85.5471 50.8423C84.4394 50.843 83.6183 51.5602 83.4578 52.4174ZM91.3244 48.3137H94.8086L93.7773 53.8001H96.7025L96.2146 56.3928H89.8058L91.3244 48.3137ZM104.945 53.4998L105.1 53.6182C105.646 54.0253 106.334 54.3577 107.136 54.3577C107.479 54.3577 108.048 54.2392 108.117 53.8754C108.185 53.5116 107.734 53.4795 107.427 53.4252L106.747 53.3185C105.424 53.1143 104.408 52.439 104.644 51.1754C105.006 49.2574 107.279 48.1855 109.364 48.1855C110.458 48.1855 111.421 48.4112 112.271 48.8929L110.941 50.9614C110.408 50.6185 109.784 50.3502 109.033 50.3502C108.729 50.3502 108.265 50.4457 108.204 50.7782C108.147 51.0779 108.571 51.1211 108.828 51.1747L109.589 51.3246C111.011 51.604 111.955 52.2676 111.698 53.6392C111.334 55.5683 109.07 56.5218 106.997 56.5218C105.79 56.5218 104.443 56.243 103.449 55.7823L104.945 53.4998Z" fill="#C9D1D9"/>
<path d="M116.915 53.4677L116.776 52.0424C116.738 51.6995 116.741 51.3462 116.743 51.0026H116.615L115.517 53.4677H116.915ZM113.882 56.3934H110.194L115.044 48.3137H118.897L120.799 56.3934H117.112L116.983 55.3863H114.352L113.882 56.3934Z" fill="#C9D1D9"/>
<path d="M122.026 48.3137H125.511L124.479 53.8001H127.405L126.917 56.3928H120.508L122.026 48.3137ZM129.082 48.3137H135.53L135.114 50.5216H132.176L132.031 51.2931H134.714L134.32 53.3937H131.637L131.489 54.1862H134.528L134.112 56.3934H127.564L129.082 48.3137Z" fill="#C9D1D9"/>
<path d="M81.8099 33.7927L86.209 33.6259L82.5177 45.9278H90.4108L94.1008 33.6259L98.4009 33.7927L100.153 27.9516H83.5607L81.8099 33.7927ZM65.4666 36.9868C64.3628 42.7553 58.3157 46.2131 51.6902 46.2131C45.0653 46.2131 40.34 42.7559 41.4439 36.9868C42.5244 31.3361 48.642 27.6656 55.2385 27.6656C61.8342 27.6656 66.5472 31.3368 65.4666 36.9868ZM49.3751 37.0823C48.9837 39.1326 50.3858 40.5395 52.7752 40.5395C55.166 40.5395 57.1058 39.1332 57.4979 37.0823C57.8628 35.1755 56.6127 33.5787 54.1068 33.5787C51.6009 33.5774 49.74 35.1755 49.3751 37.0823Z" fill="#C9D1D9"/>
<path d="M63.0138 44.5679C65.266 45.592 68.3161 46.2131 71.0524 46.2131C75.7479 46.2131 80.8775 44.0915 81.6979 39.8C82.2815 36.7486 80.1457 35.2703 76.9222 34.6506L75.1998 34.3169C74.6175 34.1971 73.6567 34.1023 73.7841 33.4341C73.9252 32.6953 74.9747 32.48 75.6663 32.48C77.3648 32.48 78.7785 33.0762 79.9859 33.8392L82.9971 29.2382C81.0703 28.1656 78.8911 27.6657 76.4137 27.6657C71.6897 27.6657 66.5381 30.0496 65.7222 34.3169C65.1839 37.1301 67.4892 38.6319 70.4843 39.0854L72.0229 39.323C72.7204 39.4434 73.744 39.5141 73.5887 40.3242C73.4335 41.1343 72.1452 41.3967 71.3669 41.3967C69.5519 41.3967 67.9939 40.6579 66.7562 39.7523L66.4035 39.4899L63.0138 44.5679ZM115.517 28.4045C113.938 27.9274 112.144 27.6657 110.357 27.6657C103.992 27.6657 98.2061 31.8616 97.2026 37.1066C96.2217 42.2324 100.3 46.2137 106.493 46.2137C107.904 46.2137 110.883 45.9991 112.247 45.4985L113.764 38.7759C112.299 39.8007 110.737 40.4446 108.922 40.4446C106.561 40.4446 104.807 38.9186 105.186 36.941C105.56 34.9857 107.787 33.4367 110.149 33.4367C111.935 33.4367 113.359 34.2711 114.441 35.2494L115.517 28.4045ZM128.154 27.6657C121.559 27.6657 115.441 31.3362 114.36 36.9868C113.257 42.7553 117.982 46.2131 124.607 46.2131C131.232 46.2131 137.28 42.7559 138.383 36.9868C139.462 31.3368 134.75 27.6657 128.154 27.6657ZM127.023 33.5774C129.529 33.5774 130.78 35.1742 130.414 37.081C130.022 39.1312 128.082 40.5382 125.691 40.5382C123.3 40.5382 121.899 39.1319 122.291 37.081C122.656 35.1755 124.517 33.5774 127.023 33.5774ZM43.4788 24.3702C41.5086 23.7937 39.2724 23.4769 37.0447 23.4769C29.1051 23.4769 21.8888 28.5485 20.6381 34.8882C19.4159 41.0839 24.5015 45.8957 32.225 45.8957C33.9856 45.8957 37.7015 45.6365 39.4012 45.0319L41.2925 36.905C39.4672 38.1444 37.5177 38.9225 35.2538 38.9225C32.3079 38.9225 30.1216 37.0778 30.5932 34.6853C31.0597 32.323 33.8368 30.4488 36.782 30.4488C39.0091 30.4488 40.7858 31.4579 42.1336 32.639L43.4788 24.3702Z" fill="#C9D1D9"/>
<path d="M133.526 45.0534C133.644 44.4259 134.336 43.92 135.089 43.92C135.836 43.92 136.343 44.4259 136.225 45.0534C136.106 45.6849 135.411 46.1908 134.662 46.1908C133.91 46.1908 133.408 45.6843 133.526 45.0534ZM135.873 45.0534C135.968 44.5483 135.609 44.2165 135.032 44.2165C134.446 44.2165 133.972 44.5483 133.879 45.0534C133.784 45.5593 134.132 45.8943 134.718 45.8943C135.295 45.8943 135.778 45.5599 135.873 45.0534ZM135.393 45.647H135.044L134.825 45.1437H134.596L134.502 45.647H134.205L134.429 44.4586H135.112C135.414 44.4586 135.577 44.543 135.525 44.8224C135.486 45.026 135.329 45.1307 135.147 45.1451L135.393 45.647ZM134.96 44.9167C135.109 44.9167 135.236 44.9167 135.261 44.7897C135.28 44.685 135.152 44.685 135.004 44.685H134.683L134.641 44.9167H134.96Z" fill="#C9D1D9"/>
<path d="M21.19 56.4066H58.1307L58.1281 56.3935H58.0977L57.6305 54.3387H21.19V56.4066ZM21.19 53.4697H57.4325L56.9615 51.4024H21.19V53.4697ZM21.19 50.5203H56.7493L56.5894 49.7671L56.2627 48.3294H21.19V50.5203ZM98.3808 48.3137H104.828L104.413 50.5216H101.476L101.33 51.2932H104.013L103.619 53.3938H100.936L100.787 54.1862H103.826L103.411 56.3935H96.8616L98.3808 48.3137Z" fill="#C9D1D9"/>
</svg>
