<svg width="160" height="80" viewBox="0 0 160 80" fill="none" xmlns="http://www.w3.org/2000/svg">
<path d="M36.8702 27.0361C28.7592 27.0361 22 30.4719 22 40.836C22 49.0466 26.5451 54.2174 37.0797 54.2174C49.4799 54.2174 50.2747 46.0631 50.2747 46.0631H44.2662C44.2662 46.0631 42.9785 50.4535 36.7133 50.4535C31.6108 50.4535 27.9406 47.0124 27.9406 42.1897H50.9034V39.163C50.9034 34.3916 47.8692 27.0358 36.8706 27.0358L36.8702 27.0361ZM36.6608 30.9046C41.5182 30.9046 44.8293 33.875 44.8293 38.3274H28.0741C28.0741 33.6008 32.3956 30.9046 36.6608 30.9046Z" fill="#C9D1D9"/>
<path d="M50.8988 17V49.0124C50.8988 50.8294 50.7688 53.3809 50.7688 53.3809H56.4996C56.4996 53.3809 56.7052 51.5485 56.7052 49.8736C56.7052 49.8736 59.5365 54.2957 67.2351 54.2957C75.3422 54.2957 80.8487 48.6769 80.8487 40.6268C80.8487 33.1377 75.7907 27.1145 67.2481 27.1145C59.2488 27.1145 56.7631 31.4268 56.7631 31.4268V17H50.8988ZM65.769 31.0741C71.2743 31.0741 74.7749 35.1531 74.7749 40.6268C74.7749 46.4961 70.7319 50.3362 65.8085 50.3362C59.9327 50.3362 56.7631 45.7562 56.7631 40.6789C56.7631 35.9481 59.607 31.0741 65.769 31.0741Z" fill="#C9D1D9"/>
<path d="M95.0909 27.0361C82.8882 27.0361 82.1057 33.7069 82.1057 34.7726H88.1794C88.1794 34.7726 88.4978 30.8781 94.6721 30.8781C98.6844 30.8781 101.793 32.7116 101.793 36.2362V37.4907H94.6721C85.2185 37.4907 80.2207 40.2517 80.2207 45.854C80.2207 51.3676 84.8384 54.3679 91.079 54.3679C99.5835 54.3679 102.323 49.6765 102.323 49.6765C102.323 51.5422 102.467 53.3811 102.467 53.3811H107.867C107.867 53.3811 107.657 51.1018 107.657 49.6436V37.0396C107.657 28.7758 100.98 27.0361 95.0909 27.0361ZM101.793 41.2542V42.9269C101.793 45.1085 100.445 50.532 92.5055 50.532C88.1583 50.532 86.2945 48.3665 86.2945 45.854C86.2945 41.2837 92.5715 41.2542 101.793 41.2542Z" fill="#C9D1D9"/>
<path d="M104.387 28.0826H111.22L121.026 47.6955L130.81 28.0826H137L119.178 63H112.686L117.829 53.2665L104.387 28.0826Z" fill="#C9D1D9"/>
</svg>
