<svg width="160" height="80" viewBox="0 0 160 80" fill="none" xmlns="http://www.w3.org/2000/svg">
<path d="M53.0023 14.0023H105.997V66.9943H53.0023V14.0023Z" fill="white"/>
<path d="M53.0024 14.0024H86.2533C88.9297 14.0024 91.6069 13.9965 94.278 14.0075C93.5378 14.7587 92.7807 15.5044 92.0354 16.2558C92.33 16.5672 92.6417 16.8566 92.9367 17.1627C93.6158 16.6953 94.3836 16.3225 95.2184 16.2612C95.9695 16.1832 96.7264 16.3783 97.4164 16.6787C97.678 16.7899 97.9229 16.9679 98.2177 16.9957C98.5071 16.9793 98.7242 16.7232 98.8242 16.467C98.9078 16.2893 98.8298 16.0776 98.6907 15.9495C98.0454 15.2986 97.3942 14.6587 96.7542 14.0075C99.8372 13.9911 102.92 14.0075 105.998 14.0021C105.998 17.007 106.003 20.0174 105.998 23.0279C105.363 22.4051 104.745 21.7705 104.116 21.1472C103.95 20.9744 103.677 20.8854 103.449 20.9913C103.299 21.0639 103.154 21.1805 103.087 21.3418C103.004 21.6649 103.148 21.9817 103.276 22.2709C103.666 23.0947 103.838 24.024 103.722 24.9311C103.644 25.5488 103.421 26.1552 103.087 26.6839C102.998 26.8123 102.915 26.9442 102.837 27.0792C103.159 27.3571 103.432 27.691 103.761 27.9638C104.495 27.207 105.252 26.4669 105.998 25.7155C105.998 30.7404 106.003 35.7655 105.998 40.7903C105.853 40.8405 105.691 40.9407 105.541 40.8681C105.341 40.7402 105.191 40.551 105.024 40.3897C103.221 38.5978 101.434 36.7892 99.6257 35.0031C98.9078 35.721 98.2013 36.4443 97.4719 37.1456C97.8559 37.5794 98.2845 37.9634 98.6853 38.3807C100.132 39.8278 101.579 41.2748 103.031 42.7212C103.154 42.8492 103.298 42.9607 103.365 43.1276C103.388 43.3112 103.26 43.4672 103.21 43.6339C103.137 43.8287 103.293 44.0624 103.499 44.0678C103.683 44.1015 103.839 43.9788 103.955 43.8565C104.634 43.1719 105.319 42.4931 105.998 41.8141V66.9946H80.8104C81.456 66.349 82.1016 65.7091 82.747 65.0633C80.5498 62.8718 78.3554 60.6775 76.1638 58.4804C75.4461 59.1705 74.756 59.8884 74.0437 60.5838C73.8933 60.7397 73.7264 60.8898 73.6543 61.1013C73.6208 61.3073 73.81 61.5019 74.0102 61.5134C74.1881 61.4909 74.3385 61.3738 74.5167 61.335C74.6724 61.3242 74.7951 61.4464 74.9061 61.5466C76.2085 62.8597 77.5163 64.1621 78.8241 65.4698C79.1519 65.8145 79.5085 66.1261 79.8143 66.4825C79.9537 66.6382 79.8588 66.8384 79.7811 66.9944H64.717L68.2728 63.4386C68.4952 63.2271 68.7235 62.9824 68.7568 62.6595C68.8069 62.2868 68.4287 61.9138 68.0557 61.9917C67.744 62.0529 67.4883 62.2978 67.1654 62.2978C66.9594 62.2814 66.8036 62.1308 66.6643 61.9974C63.8319 59.1705 61.0051 56.3382 58.1781 53.511C57.9889 53.3221 57.7608 53.1387 57.6939 52.8655C57.6829 52.5431 57.9109 52.2813 57.9945 51.9865C58.0999 51.6137 57.7496 51.2072 57.371 51.2353C57.1096 51.252 56.8759 51.4021 56.698 51.5859C55.4733 52.8269 54.2271 54.051 53.0027 55.292C52.9971 41.5303 53.0024 27.7636 53.0024 14.0024Z" fill="#C9D1D9"/>
<path d="M91.228 17.0571C91.2781 17.0016 91.3671 16.9512 91.4172 17.0348C95.2968 20.9088 99.1738 24.7856 103.048 28.6651C101.687 30.0251 100.327 31.3865 98.9689 32.7494C98.7907 32.9163 98.5736 33.0554 98.3289 33.072C97.9894 33.1001 97.6498 32.7939 97.6777 32.4487C97.6889 32.1094 97.9781 31.8479 97.9837 31.5028C97.995 31.2857 97.828 31.1246 97.6887 30.974C94.8118 28.1029 91.9401 25.2261 89.0632 22.3489C88.9016 22.1932 88.7236 21.9983 88.4789 22.0152C88.1171 22.0206 87.8443 22.3547 87.4774 22.3156C87.2657 22.321 87.0932 22.1541 86.9876 21.9817C86.8428 21.6813 86.9763 21.3195 87.1936 21.0971C88.54 19.7503 89.8869 18.4037 91.228 17.0571ZM96.8151 18.1866C96.9265 17.9808 97.138 17.7916 97.3883 17.8248C97.6665 17.8473 97.8669 18.0754 98.0505 18.259C99.1622 19.3751 100.275 20.4899 101.39 21.6033C101.601 21.8094 101.851 22.0096 101.901 22.3156C101.929 22.6327 101.64 22.9165 101.334 22.9502C101.078 22.9556 100.844 22.8167 100.622 22.694C100.149 22.4158 99.6144 22.1932 99.0522 22.221C98.7628 22.2154 98.4849 22.3322 98.2231 22.4491C97.917 22.1208 97.5665 21.8262 97.277 21.4867C97.366 21.2362 97.4829 20.9969 97.4995 20.7295C97.5388 20.1233 97.2939 19.5447 96.9876 19.038C96.8319 18.7877 96.7094 18.476 96.8153 18.1866H96.8151ZM72.2902 21.136C72.8915 20.5017 73.5259 19.9062 74.1267 19.2773C74.7 19.8336 75.2563 20.3958 75.8185 20.9578C76.0021 21.136 75.8349 21.4364 75.6293 21.5087C75.4568 21.531 75.3062 21.4141 75.1507 21.3584C74.5499 21.0636 73.8041 21.0306 73.2032 21.353C73.0473 21.4198 72.9192 21.5532 72.7522 21.5811C72.5853 21.4476 72.4462 21.2807 72.2902 21.1362V21.136ZM71.912 21.4921C72.73 22.2821 73.5203 23.1003 74.3272 23.8959C75.5905 25.1535 76.8479 26.4224 78.1168 27.68C77.3939 28.4113 76.6667 29.1384 75.9354 29.8614C75.7851 30.0281 75.4846 30.1007 75.3399 29.8946C75.162 29.7054 75.3563 29.4717 75.4123 29.2769C75.479 29.1322 75.3624 29.0044 75.2676 28.9046C73.8107 27.4529 72.3564 25.9985 70.9049 24.5415C70.7714 24.419 70.66 24.2689 70.4986 24.1855C70.2762 24.1352 70.1036 24.3356 69.8866 24.3471C69.7196 24.33 69.5639 24.1633 69.5861 23.9905C69.5971 23.857 69.6751 23.7402 69.7697 23.6456C70.482 22.9277 71.2056 22.221 71.9123 21.4919L71.912 21.4921ZM74.8168 22.3826C74.7447 22.199 74.8725 21.9766 75.0674 21.9487C75.2121 21.9265 75.3289 22.0377 75.4291 22.1323C76.03 22.7331 76.6309 23.3398 77.2376 23.9352C77.3429 24.0523 77.4935 24.1577 77.5045 24.3303C77.527 24.5028 77.36 24.6698 77.1821 24.6529C76.9479 24.6529 76.7699 24.4693 76.5587 24.3914C76.2471 24.2469 75.8687 24.2357 75.5626 24.4026C75.401 24.2413 75.2395 24.0743 75.0727 23.924C75.1453 23.6791 75.2121 23.4178 75.1507 23.1616C75.1062 22.8724 74.9058 22.6498 74.8168 22.3826ZM85.4735 22.8167C85.624 22.6664 85.813 22.5552 86.0247 22.5273C86.397 22.4718 86.7869 22.8333 86.7148 23.2117C86.6646 23.5456 86.3865 23.8125 86.4085 24.1635C86.4642 24.408 86.6646 24.5749 86.8257 24.7477C89.6696 27.5856 92.5133 30.4179 95.3457 33.2615C95.5016 33.4008 95.6571 33.5846 95.88 33.5846C96.214 33.5846 96.4699 33.334 96.7872 33.2781C97.1543 33.2172 97.5161 33.5787 97.4714 33.9461C97.4494 34.1967 97.2991 34.4135 97.1267 34.5858C95.696 36.0104 94.2716 37.4462 92.8416 38.8708C92.658 39.0543 92.4243 39.2213 92.1517 39.2213C91.8508 39.2379 91.5617 38.9825 91.5228 38.6874C91.4837 38.2976 91.8455 38.0084 91.8342 37.6185C91.8176 37.435 91.6897 37.2849 91.5673 37.1512C89.0685 34.6584 86.5754 32.1598 84.0769 29.6668C86.1415 33.5008 88.2228 37.324 90.2873 41.158C90.3206 41.2134 90.3482 41.275 90.3763 41.3415C90.2256 41.4837 90.079 41.6303 89.9368 41.781C85.802 39.7446 81.6728 37.6853 77.5436 35.6432C76.8926 35.3206 76.2471 34.9422 75.5125 34.8532C75.2676 34.8195 75.1004 35.0202 74.9224 35.1482C74.7388 35.2927 74.4939 35.3817 74.2661 35.3093C73.9933 35.1871 73.8041 34.8645 73.8877 34.5694C73.9432 34.369 74.082 34.202 74.227 34.0571C75.5626 32.7274 76.8926 31.392 78.2283 30.0674C80.3093 31.086 82.3961 32.0818 84.4832 33.1004C84.5499 33.1502 84.6221 33.2003 84.6834 33.2671C84.7169 33.228 84.7448 33.1891 84.778 33.1502L84.7 33.1612C83.6039 31.0745 82.4521 29.0156 81.3555 26.9289C82.7357 25.56 84.0992 24.1855 85.4737 22.8167H85.4735ZM78.1669 23.7571C78.2672 23.5735 78.551 23.5512 78.6844 23.7069C79.2464 24.2745 79.8199 24.8421 80.3873 25.4099C79.7533 26.0501 79.1153 26.6863 78.4732 27.3185C78.3285 27.1515 78.1335 27.0181 78.0222 26.8233C78.2058 26.5118 78.4006 26.1943 78.4508 25.8272C78.5454 25.3207 78.462 24.7866 78.2447 24.3192C78.1836 24.1413 78.0501 23.9352 78.1669 23.7573V23.7571ZM68.8235 24.5918C68.9347 24.475 69.0572 24.3525 69.2185 24.3136C69.3801 24.2804 69.5803 24.3804 69.6025 24.5583C69.6416 24.7531 69.4969 24.9147 69.458 25.1039C69.4356 25.254 69.558 25.3598 69.647 25.46C71.133 26.9455 72.6131 28.4314 74.0991 29.9115C74.1993 30.0063 74.3049 30.1231 74.4496 30.1564C74.6276 30.14 74.7775 30.0229 74.9505 29.9841C75.162 29.9616 75.3566 30.1901 75.2898 30.3901C75.2622 30.5404 75.1453 30.6519 75.0451 30.7577C74.3216 31.4812 73.598 32.2043 72.8744 32.9222C72.7468 33.0503 72.5799 33.1837 72.3904 33.1392C72.2848 33.0947 72.1958 33.0112 72.1567 32.9056C72.1012 32.6606 72.3628 32.4602 72.3015 32.2153C72.246 32.1209 72.168 32.0483 72.0954 31.9706C71.4168 31.2972 70.7433 30.6127 70.0589 29.9396C69.8205 30.1835 69.5793 30.4247 69.3353 30.6631C69.1684 30.5015 69.0014 30.34 68.8457 30.1676C69.0904 29.9283 69.33 29.6836 69.5749 29.4441C68.9736 28.8545 68.3781 28.2532 67.7829 27.6578C67.6548 27.5355 67.5435 27.4021 67.3932 27.3131C67.1206 27.2241 66.8591 27.6081 66.5975 27.3965C66.3858 27.2466 66.4528 26.9455 66.6254 26.79C67.3543 26.0496 68.0943 25.3266 68.8235 24.5918Z" fill="white"/>
<path d="M65.9745 27.4801C66.1417 27.3738 66.392 27.4407 66.4697 27.6299C66.5477 27.858 66.3419 28.0528 66.3363 28.2755C66.3307 28.3925 66.4253 28.4757 66.4976 28.5536C68.0391 30.0953 69.5752 31.6365 71.1167 33.1723C71.3946 33.4727 71.751 32.9552 72.0514 33.1779C72.2463 33.3338 72.1795 33.6396 72.0126 33.7843C71.289 34.5135 70.5601 35.2314 69.8419 35.9601C69.7253 36.0715 69.6084 36.205 69.4471 36.2551C69.2689 36.3052 69.0518 36.1937 69.0298 36.0048C68.9963 35.7823 69.1968 35.6095 69.1855 35.3925C69.1574 35.2979 69.0966 35.2201 69.0298 35.1478C67.5707 33.6946 66.1145 32.2385 64.6611 30.7795C64.5222 30.6516 64.4054 30.4901 64.2216 30.4236C64.0214 30.4123 63.8544 30.5627 63.6596 30.5847C63.4926 30.5903 63.3479 30.44 63.3423 30.2789C63.3257 30.1061 63.4481 29.9674 63.5647 29.8504C64.2883 29.1268 65.0116 28.4033 65.7298 27.68C65.8075 27.6077 65.8797 27.5353 65.9745 27.4798V27.4801ZM61.9511 31.4585C62.2851 31.1356 62.6077 30.8017 62.9416 30.4734C63.5261 31.0413 64.0991 31.6309 64.6836 32.2041C64.7838 32.3153 64.906 32.4155 64.9615 32.5602C65.0285 32.833 64.7171 33.1334 64.444 33.0109C64.1715 32.8885 63.9546 32.6714 63.6928 32.5267C63.2533 32.2542 62.7412 32.0818 62.2183 32.1429C62.068 31.9872 61.901 31.8423 61.7676 31.6756C61.8118 31.5866 61.8844 31.5252 61.9511 31.4585ZM59.5248 33.8845C60.1481 33.2725 60.7602 32.6548 61.3779 32.0371C62.5475 33.2122 63.7197 34.3845 64.8948 35.554C65.5404 36.1937 66.1693 36.8451 66.8203 37.4741C67.0041 37.6797 67.2488 37.5073 67.4492 37.4347C67.6494 37.3458 67.8834 37.524 67.8778 37.7352C67.8778 37.8799 67.7942 38.0023 67.6998 38.1028C66.943 38.8539 66.1972 39.6051 65.446 40.3565C65.3402 40.4621 65.2064 40.5677 65.0507 40.5567C64.8782 40.5735 64.7112 40.4068 64.7276 40.2394C64.7391 40.0614 64.8782 39.9167 64.8782 39.7385C64.8894 39.5882 64.7611 39.4936 64.6721 39.3934C62.8972 37.6296 61.1386 35.8491 59.3578 34.0904C59.4135 34.018 59.4637 33.9513 59.5248 33.8845ZM101.289 33.3392C101.979 34.0182 102.664 34.7027 103.343 35.3927C103.56 35.5988 103.404 36.0102 103.115 36.0549C102.848 36.0938 102.642 35.8823 102.436 35.7435C101.885 35.3646 101.234 35.0087 100.544 35.1255C100.36 34.9586 100.182 34.786 100.032 34.5917C100.46 34.1796 100.872 33.7565 101.289 33.3392H101.289ZM58.9572 34.4688C59.1632 34.5467 59.2911 34.7804 59.458 34.9253C59.3691 35.5707 59.6749 36.1771 60.0364 36.6838C60.1425 36.8454 60.2703 36.9952 60.3371 37.1788C60.4097 37.4237 60.1704 37.6799 59.9254 37.6518C59.7863 37.6518 59.6917 37.535 59.6027 37.4516C58.996 36.8393 58.3842 36.2387 57.7775 35.6264C58.1779 35.2478 58.5511 34.842 58.9572 34.4688ZM71.3391 37.6075C72.4465 37.2512 73.6484 37.2123 74.7892 37.446C76.7257 37.8581 78.4398 38.993 79.8089 40.401C81.15 41.7586 82.2185 43.4615 82.5802 45.3589C82.7804 46.3994 82.736 47.4901 82.4358 48.5084C82.1407 49.5157 81.6061 50.4451 80.9329 51.2463C80.6435 50.9403 80.3264 50.6565 80.0478 50.3449C80.0478 50.1945 80.1426 50.0665 80.1707 49.922C80.3206 49.4326 80.1707 48.8814 79.7977 48.525C77.0487 45.7707 74.2886 43.0162 71.5393 40.2619C71.2888 40.0057 70.972 39.7999 70.6102 39.772C70.3151 39.7332 70.0257 39.8388 69.7475 39.9387C69.6361 40.0001 69.5639 39.8615 69.4916 39.8053C69.2689 39.5664 69.024 39.3492 68.8015 39.1042C68.8015 39.0878 68.7959 39.0541 68.7959 39.0375C69.5358 38.4032 70.4043 37.908 71.3389 37.6075H71.3391ZM78.8407 37.3013C79.0966 37.3846 79.3301 37.5127 79.5696 37.6352C80.4658 38.0693 81.3558 38.5203 82.2576 38.9595C82.3353 38.9986 82.4074 39.0597 82.4746 39.1211C83.231 39.8891 83.9939 40.6456 84.7561 41.408C85.171 41.8477 85.6812 42.1865 86.2474 42.3985C86.6425 42.5488 87.0878 42.5488 87.4829 42.4095C87.6833 42.3428 87.9004 42.265 88.1118 42.3318C88.2176 42.3754 88.3093 42.4473 88.377 42.5395C88.4447 42.6318 88.4857 42.7409 88.4956 42.8549C88.479 43.1609 88.2842 43.4168 88.0783 43.6283C87.3976 44.3183 86.7112 45.0028 86.0194 45.6818C85.8358 45.8487 85.6243 46.0213 85.3682 46.0489C85.001 46.1044 84.6392 45.7152 84.7504 45.3589C84.8563 44.9971 85.001 44.63 84.9399 44.2516C84.8507 43.617 84.4889 43.0551 84.0882 42.5711C82.5802 41.0575 81.0666 39.5494 79.553 38.0302C79.3188 37.7853 79.0631 37.5628 78.8407 37.3013ZM95.8134 38.8148C96.2311 38.3976 96.6538 37.9801 97.0713 37.5574C97.2549 37.7075 97.4162 37.8857 97.5888 38.0527C97.5162 38.609 97.7058 39.1597 97.995 39.6273C98.1449 39.8945 98.3622 40.1226 98.4959 40.4007C98.5683 40.5344 98.5182 40.6845 98.4678 40.818C99.1702 41.2924 99.7827 41.8878 100.277 42.5765C100.839 43.3726 101.234 44.3185 101.211 45.309C101.217 46.2493 100.811 47.1506 100.215 47.8629C100.054 47.6959 99.8648 47.5458 99.7255 47.3566C99.7536 47.1506 99.8536 46.9504 99.8035 46.7446C99.748 46.4776 99.5419 46.2882 99.3583 46.1044C97.8894 44.641 96.4257 43.1778 94.9622 41.7141C94.8175 41.5694 94.6449 41.4359 94.4388 41.4193C94.2443 41.3968 94.0494 41.4525 93.8715 41.5136C93.6989 41.3525 93.5265 41.1797 93.3596 41.0128C94.0995 40.3785 95.0619 39.9722 96.0473 40.0223C96.4257 40.0113 96.7931 40.1003 97.1603 40.1839C96.7151 39.7219 96.2419 39.2878 95.8134 38.8148ZM66.6924 42.0812C66.9985 41.2299 67.4825 40.4508 68.0557 39.7552C68.3395 40.0448 68.6402 40.3228 68.9184 40.6178C68.9739 40.796 68.8294 40.9629 68.8013 41.1409C68.6568 41.6195 68.8458 42.1426 69.1968 42.4875C71.9011 45.1975 74.6113 47.902 77.3215 50.6118C77.583 50.8958 77.8998 51.1628 78.3007 51.2241C78.6566 51.2798 79.0076 51.1574 79.3357 51.0349C79.6364 51.3353 79.937 51.6304 80.2372 51.9308C79.5806 52.504 78.8182 52.9547 78.0057 53.272C76.7815 53.745 75.4126 53.8227 74.127 53.5391C72.1737 53.1107 70.4542 51.9364 69.0797 50.5062C67.811 49.1765 66.7868 47.5458 66.4253 45.726C66.1806 44.5187 66.2585 43.2389 66.6922 42.0812H66.6924ZM91.9848 43.6898C92.0518 42.8439 92.4246 42.037 92.9812 41.4024C93.1423 41.5694 93.3151 41.7363 93.4818 41.9035C93.4207 42.1037 93.3259 42.3151 93.3818 42.5263C93.4151 42.716 93.5429 42.8661 93.6766 42.9996C95.1458 44.463 96.6036 45.9321 98.073 47.3955C98.2453 47.5625 98.4123 47.7631 98.6572 47.8296C98.8797 47.891 99.108 47.8128 99.3246 47.746C99.492 47.9132 99.6646 48.0802 99.8257 48.2581C99.1246 48.8367 98.251 49.2432 97.3272 49.2432C96.4313 49.2821 95.552 48.9648 94.8065 48.4974C94.2665 48.1525 93.7712 47.735 93.3594 47.2508C93.5542 47.902 93.5099 48.6311 93.2036 49.2434C92.9032 49.844 92.4356 50.3339 91.9738 50.8068C91.8069 50.6399 91.6343 50.4673 91.4617 50.3004C91.6067 50.0665 91.7013 49.7883 91.6121 49.516C91.5064 49.2373 91.2781 49.0371 91.0779 48.8257C90.6638 48.4069 90.2483 47.9896 89.8313 47.5737C89.5866 47.3454 89.3248 47.0839 88.9742 47.0616C88.7682 47.0396 88.5848 47.1452 88.4122 47.2454C88.2399 47.0785 88.0727 46.9059 87.9004 46.7392C88.5677 46.0658 89.3304 45.3701 90.3099 45.2476C91.1112 45.1142 91.9181 45.4591 92.4857 46.01C92.1295 45.2978 91.9071 44.4963 91.9846 43.6896L91.9848 43.6898ZM62.6522 45.6316C62.8192 45.4703 63.0362 45.3479 63.2699 45.3312C63.654 45.3088 64.0047 45.7094 63.8987 46.0824C63.8153 46.3662 63.6095 46.6165 63.5982 46.923C63.6205 47.1899 63.8432 47.3789 64.0214 47.5571L72.5912 56.1265C72.7246 56.2546 72.875 56.3824 73.0642 56.3991C73.3869 56.3991 73.6374 56.1602 73.9435 56.0876C74.3106 56.0153 74.678 56.3492 74.6614 56.7163C74.6501 56.9669 74.5111 57.1949 74.3382 57.3729L70.0257 61.6859C69.8365 61.8693 69.6028 62.0306 69.3303 62.0306C68.9963 62.0419 68.6847 61.7248 68.7121 61.3851C68.746 61.0514 69.024 60.7842 69.0298 60.4391C69.0186 60.2333 68.857 60.0773 68.7292 59.9329C67.4492 58.6474 66.1637 57.3729 64.8894 56.0933C64.8393 56.0544 64.7723 55.9429 64.7002 56.0207C64.2551 56.4492 63.8265 56.9001 63.3812 57.3284C63.0807 57.028 62.7803 56.7276 62.4796 56.4215C62.9113 55.9704 63.3529 55.5288 63.8041 55.0972C63.8041 55.0747 63.8099 55.0248 63.8099 55.0024C62.6021 53.8176 61.4168 52.6152 60.2148 51.4189C60.0313 51.2463 59.8585 51.0295 59.6027 50.9682C59.2522 50.9457 58.9794 51.2187 58.6511 51.2798C58.2282 51.3524 57.8442 50.8736 57.9889 50.4783C58.0613 50.2002 58.2837 49.9997 58.4783 49.811C59.8697 48.4141 61.2665 47.0284 62.6522 45.6316ZM87.4995 47.1342C88.1673 47.7573 88.7963 48.4251 89.4529 49.065C90.7017 50.3184 91.952 51.5704 93.2036 52.821C93.2926 52.8936 93.376 52.9936 93.4928 53.0158C93.7324 53.0383 93.9213 52.8044 94.1609 52.8489C94.3056 52.899 94.4388 53.0385 94.4224 53.1994C94.4224 53.4165 94.2386 53.567 94.1049 53.7115C93.3205 54.4851 92.5468 55.2695 91.7624 56.0432C91.5898 56.2323 91.2669 56.1378 91.1613 55.9263C91.0056 55.6648 91.4282 55.3864 91.2058 55.1473C89.591 53.5382 87.979 51.9262 86.3699 50.3114C86.2528 50.206 86.1531 50.0725 86.0137 50C85.7744 49.933 85.5852 50.1334 85.3628 50.1615C85.1902 50.1447 85.0232 49.9943 85.0342 49.8162C85.0176 49.6213 85.1623 49.4715 85.2846 49.3434C86.025 48.6086 86.7652 47.8687 87.4995 47.1342ZM82.5357 52.0923C83.1977 51.4414 83.8433 50.768 84.5167 50.1278C85.1122 50.7289 85.7133 51.3243 86.3088 51.9251C86.509 52.12 86.2975 52.415 86.0917 52.504C85.947 52.5206 85.8131 52.4316 85.6852 52.3761C85.1736 52.1256 84.5835 52.0031 84.0215 52.1478C83.6653 52.2204 83.3537 52.4204 83.042 52.604C82.875 52.4316 82.7083 52.2593 82.5357 52.0923ZM79.831 54.8022C80.599 54.0231 81.3783 53.2607 82.1461 52.4871C83.3925 53.7171 84.6224 54.9691 85.8746 56.1989C86.8319 57.1505 87.7779 58.1133 88.7405 59.0592C87.995 59.8273 87.2272 60.5728 86.4809 61.3352C86.3755 61.4523 86.2252 61.5188 86.0861 61.5799C85.947 61.53 85.7744 61.4799 85.7299 61.3242C85.6466 61.0624 85.9191 60.8566 85.8859 60.6007C85.7744 60.3836 85.5796 60.2277 85.4126 60.0553L81.3558 55.9984C81.1167 55.776 80.9163 55.5091 80.6323 55.3421C80.3487 55.2861 80.0927 55.6479 79.8202 55.4531C79.5865 55.3032 79.6532 54.9691 79.831 54.8022ZM85.2291 53.4223C85.1401 53.194 85.3515 52.9268 85.5908 52.9657C85.7021 52.9938 85.7852 53.0659 85.8634 53.1439C86.4476 53.734 87.0377 54.3125 87.6166 54.9024C87.8055 55.0972 88.0505 55.2641 88.1284 55.5423C88.0558 55.6648 87.9781 55.8317 87.8114 55.8483C87.5384 55.8764 87.3381 55.6591 87.0932 55.5699C86.9262 55.4871 86.7421 55.4444 86.5556 55.4455C86.3691 55.4465 86.1855 55.4911 86.0194 55.5758C85.8414 55.3978 85.6688 55.2194 85.4906 55.0471C85.6131 54.7855 85.6686 54.4851 85.5796 54.2067C85.5129 53.9229 85.3237 53.6892 85.2291 53.4223ZM88.807 54.8745C88.9241 54.6966 89.2079 54.6687 89.347 54.8356C89.9481 55.4423 90.5604 56.0432 91.1557 56.6552C90.4712 57.323 89.8146 58.0241 89.1133 58.6752C88.9522 58.5027 88.7794 58.3357 88.6122 58.1632C89.2079 57.4289 89.2913 56.3658 88.8909 55.5201C88.8183 55.3196 88.6626 55.0747 88.8073 54.8745" fill="white"/>
<path d="M53.0024 57.0893C53.2248 57.0003 53.4368 56.861 53.6815 56.8669C53.9765 56.9224 54.1603 57.1839 54.3659 57.3785C57.1653 60.1665 59.953 62.96 62.7465 65.7478C62.9025 65.9206 63.1029 66.0929 63.1305 66.3378C63.1195 66.5769 62.9914 66.7886 62.8917 67C59.5914 66.9944 56.2973 66.9944 53.0026 66.9944C53.0026 63.6945 52.997 60.389 53.0026 57.0893" fill="#C9D1D9"/>
<path d="M78.9073 56.939C79.8978 56.8556 80.883 57.2115 81.7009 57.7515C82.3408 58.18 82.9363 58.6752 83.3925 59.2929C83.9381 60.0218 84.2717 60.9123 84.2776 61.8304C84.294 62.8766 83.8823 63.9338 83.1368 64.6737C82.965 64.5079 82.7962 64.3391 82.6303 64.1675C82.7303 63.9785 82.8471 63.7781 82.8139 63.5554C82.7584 63.2215 82.5301 62.949 82.3017 62.7207L78.5456 58.9644C78.2896 58.7141 78 58.4413 77.6218 58.4137C77.4157 58.3914 77.2322 58.497 77.0598 58.5972C76.8982 58.4193 76.6758 58.2858 76.5756 58.0634C77.1877 57.4342 78.0224 56.9945 78.9073 56.939Z" fill="white"/>
</svg>
