<svg width="160" height="80" viewBox="0 0 160 80" fill="none" xmlns="http://www.w3.org/2000/svg">
<path fill-rule="evenodd" clip-rule="evenodd" d="M70.4071 21.075L78.3168 13H103.089L83.3289 33.162L103.089 53.3038H78.3168L70.4071 45.2493V53.3038H53V13H70.4071V21.075ZM63.0219 58.5969L59.3517 62.1477H59.392L63.4733 66.7796H59.4998L55.9151 62.4806V66.7796H53V55.8404H55.9151V62.104L59.4998 58.5969H63.0219ZM63.8448 58.5969H66.6494V60.0753C67.535 58.5766 68.7239 58.3126 69.7825 58.3126C70.9892 58.3126 71.8545 59.1042 72.3113 60.1444C73.0437 58.8841 74.3833 58.3126 75.5072 58.3126C77.2982 58.2894 78.8361 59.391 78.8361 61.8173V66.7799H76.0465V62.1479C76.0465 60.9797 75.2037 60.4264 74.4911 60.4057C73.6683 60.4057 72.7402 61.2435 72.7402 62.2812V66.7799H69.9331V62.1479C69.9331 61.2667 69.499 60.4057 68.4856 60.4057C67.773 60.4057 66.7372 61.0872 66.7372 62.7217V66.7799H63.8448V58.5969ZM90.2602 58.5969H93.0448V60.3184C93.5866 58.6198 95.1195 58.3126 96.9983 58.4636V61.0231C95.9624 60.936 95.0993 60.9797 94.4295 61.2667C93.7371 61.5742 93.1551 62.3016 93.1551 63.0985V66.7799H90.2602V58.5969ZM97.6254 55.8404H100.5V58.4431H102.873V61.0231H100.5V63.849C100.5 64.9251 101.273 65.0377 102.873 64.7277V66.6721C99.9156 67.2898 97.6254 66.9129 97.6254 63.7592V55.8404ZM106.265 66.4311L106.631 65.2578H107V66.7155H106.764V65.5241L106.395 66.7155H106.157L105.794 65.5241V66.7155H105.573V65.2578H105.919L106.265 66.4311ZM105.274 65.6778H105.036C105.037 65.6433 105.029 65.609 105.014 65.5782C104.998 65.5474 104.976 65.5209 104.948 65.5011C104.883 65.4577 104.82 65.437 104.709 65.437C104.647 65.437 104.579 65.437 104.516 65.4782C104.474 65.5241 104.451 65.5652 104.451 65.614C104.451 65.6778 104.474 65.719 104.516 65.7422C104.559 65.7909 104.647 65.8318 104.8 65.8548C105.011 65.9189 105.141 65.9648 105.226 66.034C105.294 66.0981 105.317 66.1852 105.317 66.2955C105.317 66.4313 105.274 66.5391 105.166 66.6284C105.058 66.7155 104.925 66.759 104.755 66.759C104.559 66.759 104.429 66.7155 104.323 66.6284C104.213 66.5388 104.173 66.4056 104.148 66.2518H104.383C104.406 66.3389 104.429 66.4056 104.494 66.4722C104.559 66.5156 104.647 66.5388 104.775 66.5388C104.86 66.5388 104.925 66.5156 104.97 66.4952C105.036 66.4517 105.058 66.4056 105.058 66.3389C105.058 66.3185 105.058 66.2955 105.036 66.2518C105.011 66.2263 104.991 66.2107 104.97 66.1852C104.925 66.139 104.84 66.1186 104.709 66.0751H104.647C104.494 66.034 104.363 65.9651 104.301 65.8982C104.266 65.8634 104.239 65.822 104.22 65.7762C104.202 65.7305 104.192 65.6814 104.193 65.6319C104.193 65.5241 104.258 65.4115 104.343 65.3499C104.451 65.2578 104.579 65.2373 104.755 65.2373C104.905 65.2373 105.036 65.2578 105.121 65.3499C105.226 65.437 105.274 65.5448 105.274 65.6778ZM89.0284 66.7796H86.2665V65.5241C85.6394 66.3389 84.6435 67 83.1761 67C81.5127 67 79.7192 66.4722 79.7619 64.3304C79.7619 61.2203 84.1494 61.6403 86.1965 61.5969C86.1965 60.5799 85.6822 59.9854 84.6438 59.9854C83.8034 59.9854 83.1763 60.4055 83.1763 60.8873H80.2788C80.2788 59.2168 82.356 58.3126 84.6865 58.3126C87.5814 58.3126 89.0288 59.3705 89.0288 61.4432V66.7796H89.0284ZM86.1963 63.1826C85.3131 63.2288 82.3557 62.8547 82.3557 64.3125C82.3557 64.9044 82.8548 65.2373 83.6727 65.2373C84.8163 65.2167 86.156 64.4687 86.1963 63.1826Z" fill="#C9D1D9"/>
</svg>
