<svg width="160" height="80" viewBox="0 0 160 80" fill="none" xmlns="http://www.w3.org/2000/svg">
<path d="M80.0052 19L56.2448 29.1207H41.4239V33.2494H34V61H126V33.2494H118.58V29.1207H103.764L80.0052 19Z" fill="#C9D1D9"/>
<path d="M101.944 36.5012L101.943 40.9876L104.862 40.9927L105.47 36.5026L101.945 36.5016L101.944 36.5012ZM117.726 40.3886C117.914 40.3886 118.084 40.3745 118.084 40.1464C118.084 39.967 117.917 39.9337 117.762 39.9337H117.458V40.3886H117.726ZM117.458 41.2113H117.235V39.7453H117.797C118.144 39.7453 118.316 39.8734 118.316 40.163C118.316 40.4258 118.153 40.5398 117.936 40.5668L118.355 41.2113H118.105L117.716 40.5757H117.458V41.2113ZM117.729 41.5393C118.307 41.5393 118.764 41.0896 118.764 40.4757C118.764 39.8734 118.307 39.4198 117.729 39.4198C117.143 39.4198 116.686 39.8734 116.686 40.4757C116.686 41.0896 117.143 41.5393 117.729 41.5393ZM116.429 40.4757C116.429 39.7453 117.024 39.2071 117.729 39.2071C118.426 39.2071 119.023 39.7453 119.023 40.4757C119.023 41.2113 118.426 41.752 117.729 41.752C117.024 41.752 116.429 41.2113 116.429 40.4757ZM48.6755 51.7895V36.5007H44.4706V55.43H55.1819V51.7895H48.6755ZM91.006 55.4306H101.015V51.7851H95.2315V49.4093H101.015V45.8994H95.2315V43.5109H101.015V39.8499H91.0061V39.8678L91.006 55.4306ZM64.7926 43.5112H61.0942V51.77H64.7926V43.5112ZM69.0052 53.441C69.0052 54.5391 68.1096 55.431 67.004 55.431H58.8814C57.7771 55.431 56.8814 54.5391 56.8814 53.441V41.8402C56.8814 40.7407 57.7771 39.8502 58.8814 39.8502H67.0039C68.1095 39.8502 69.0051 40.7407 69.0051 41.8402L69.0052 53.441ZM84.3886 39.8505V51.7896H81.8499V39.8504H78.1515V51.7895H75.6128V39.8504H71.4003V53.44C71.4003 54.5394 72.2958 55.4313 73.4015 55.4313H78.3809C79.2198 55.4313 80.0008 54.8547 80.0008 54.0204C80.0008 54.8547 80.7817 55.4313 81.6206 55.4313H86.6013C87.7056 55.4313 88.6013 54.5394 88.6013 53.44V39.8504L84.3886 39.8505ZM115.781 49.5429L115.782 49.5439L115.756 49.4901C115.739 49.4568 115.723 49.4247 115.706 49.3915L115.68 49.3402C115.014 48.0113 113.521 46.9016 111.119 45.9457L111.034 45.9137C110.559 45.7279 109.112 45.1653 108.951 44.2504C108.907 43.9941 109.011 43.5917 109.299 43.347C109.601 43.0407 110.065 42.8832 110.677 42.8832C111.657 42.8832 112.77 43.2816 113.348 43.5187C114.563 44.0197 115.628 44.467 115.639 44.4734L115.744 44.5169V41.116L115.71 41.0942C115.687 41.0788 113.389 39.6385 111.068 39.3079C110.807 39.2855 110.545 39.2744 110.283 39.2746C108.147 39.2746 106.528 40.046 105.474 41.5683C104.589 42.819 104.491 44.7988 105.243 46.2763C106.211 47.946 107.763 48.6431 109.264 49.3184C109.882 49.5952 110.523 49.8848 111.122 50.2385L111.128 50.2426C111.806 50.6475 112.151 51.2665 112.008 51.8161C111.86 52.3864 111.204 52.7695 110.376 52.7695C110.262 52.7695 110.148 52.7634 110.035 52.7478L109.995 52.7427C108.401 52.5223 105.169 51.3254 105.137 51.3126L105.034 51.2742V55.0031L105.087 55.021C105.117 55.0313 108.245 56.0616 111.023 56.0616H111.024C112.539 56.0616 113.683 55.7579 114.423 55.1608C114.441 55.148 116.138 53.7909 116.213 51.4831C116.234 50.8449 116.088 50.1914 115.78 49.543" fill="white"/>
</svg>
