<svg width="160" height="80" viewBox="0 0 160 80" fill="none" xmlns="http://www.w3.org/2000/svg">
<path fill-rule="evenodd" clip-rule="evenodd" d="M9.02301 41.8092C9.02301 47.1071 11.3766 48.9776 15.619 48.9776H25.6041C26.385 48.9776 27.0183 48.345 27.0183 47.5643V32.4129C27.0183 31.6325 26.385 31.0001 25.6041 31.0001H10.4372C9.65628 31.0001 9.02301 31.6325 9.02301 32.4129V41.8092Z" fill="white"/>
<path fill-rule="evenodd" clip-rule="evenodd" d="M9 31V40.9288C9.44932 39.3704 10.3356 37.959 11.6643 36.6963C13.6716 34.7903 16.0385 33.8367 18.7657 33.8367C20.4569 33.8367 21.8294 34.3948 22.8812 35.5114C23.9326 36.6283 24.4597 38.086 24.4597 39.8865C24.4597 42.4919 23.4513 44.7447 21.4361 46.6442C20.2568 47.7554 18.9489 48.539 17.5147 49H27.0183V31H9ZM20.2877 46.4102C21.4584 44.9582 22.0437 43.156 22.0437 41.0024C22.0437 39.2007 21.5863 37.7066 20.6717 36.5206C19.7571 35.3346 18.6075 34.7421 17.2236 34.7421C15.4696 34.7421 14.006 35.4664 12.8313 36.915C11.6571 38.3632 11.0697 40.1713 11.0697 42.3381C11.0697 44.1487 11.5272 45.6417 12.4414 46.8204C13.3557 47.9992 14.5178 48.588 15.9276 48.588C17.6638 48.588 19.1172 47.8619 20.2877 46.4102Z" fill="#C9D1D9"/>
<path d="M110.144 37.0293H108L103.691 41.256V33.3002H102.065V47.0325H103.691V43.246L105.089 41.9833L108.211 47.0325H110.373L106.314 40.759L110.144 37.0293ZM96.4341 38.2536C97.8524 38.2536 98.5977 39.0565 98.8082 40.396H100.436C100.302 38.6552 99.3061 36.7428 96.6831 36.7428C93.3707 36.7428 91.878 39.2103 91.878 42.3082C91.878 45.1965 93.5437 47.3196 96.3585 47.3196C99.2868 47.3196 100.263 45.0814 100.436 43.4939H98.8082C98.5215 45.0246 97.5442 45.8661 96.4142 45.8661C94.0982 45.8661 93.6774 43.7428 93.6774 42.0217C93.6774 40.2431 94.348 38.2537 96.4341 38.2537V38.2536ZM85.6931 45.8465C83.2812 45.8465 82.7825 43.3605 82.7825 42.0216C82.7825 40.6824 83.2812 38.1959 85.6931 38.1959C88.1053 38.1959 88.6027 40.6824 88.6027 42.0216C88.6027 43.3605 88.1053 45.8465 85.6931 45.8465ZM85.6931 36.7427C82.4949 36.7427 81.04 39.4393 81.04 42.0216C81.04 44.6028 82.4949 47.2998 85.6931 47.2998C88.8903 47.2998 90.3451 44.6027 90.3451 42.0216C90.3451 39.4393 88.8903 36.7427 85.6931 36.7427ZM78.4551 34.2375H76.7706V37.0291H75.4116V38.4255H76.7706V45.0245C76.7706 46.2296 77.1342 47.1663 78.7996 47.1663C78.9728 47.1663 79.4502 47.0898 80.0639 47.0324V45.7123H79.4701C79.1257 45.7123 78.4551 45.7123 78.4551 44.9288V38.4255H80.0639V37.0293H78.4551V34.2375ZM71.6398 41.3713L69.9562 40.9501C68.6544 40.6253 68.1377 40.434 68.1377 39.6115C68.1377 38.369 69.6117 38.1959 70.1292 38.1959C72.2532 38.1959 72.4831 39.248 72.5021 39.8796H74.1297C74.1297 39.3819 73.8811 36.7427 70.3011 36.7427C68.3286 36.7427 66.5102 37.7369 66.5102 39.9363C66.5102 41.3139 67.4294 42.0216 68.8262 42.3655L70.7796 42.8441C72.2142 43.2067 72.7707 43.475 72.7707 44.2779C72.7707 45.3875 71.6788 45.8661 70.4729 45.8661C68.0988 45.8661 67.8689 44.6027 67.812 43.8198H66.1844C66.2425 45.0245 66.5289 47.3195 70.4928 47.3195C72.7508 47.3195 74.4554 46.0761 74.4554 44.0105C74.4554 42.6528 73.728 41.8877 71.6398 41.3713ZM62.3924 38.6932H62.3546V37.0294H60.7657V47.0326H62.4505V41.2186C62.4505 39.7643 63.4456 38.5404 65.0163 38.5404H65.6476V36.7998C65.5138 36.7619 65.418 36.7428 65.208 36.7428C63.9432 36.7428 63.063 37.527 62.3924 38.6934V38.6932ZM51.5028 41.2376C51.5028 39.6884 52.7277 38.2537 54.2794 38.2537C56.3277 38.2537 56.978 39.6884 57.0742 41.2376H51.5028ZM54.5092 36.7428C51.1969 36.7428 49.7033 39.2104 49.7033 42.3082C49.7033 45.1966 51.3687 47.3196 54.1835 47.3196C55.7911 47.3196 56.4426 46.9374 56.9021 46.6301C58.1652 45.7892 58.6247 44.3738 58.6827 43.8958H56.9983C56.9402 44.6424 56.002 45.8662 54.4134 45.8662C52.4789 45.8662 51.5028 44.6609 51.5028 42.5762H58.8168C58.8168 39.0381 57.3997 36.7428 54.5093 36.7428H54.5092ZM44.5924 45.1772H44.5545L41.9506 37.0292H39.9985L43.6541 47.0325H45.4548L49.2635 37.0293H47.4262L44.5924 45.1772ZM34.8107 45.8465C32.3985 45.8465 31.9012 43.3606 31.9012 42.0217C31.9012 40.6824 32.3985 38.196 34.8107 38.196C37.2227 38.196 37.721 40.6824 37.721 42.0217C37.721 43.3606 37.2226 45.8465 34.8107 45.8465ZM34.8107 36.7428C31.6133 36.7428 30.1584 39.4393 30.1584 42.0217C30.1584 44.6029 31.6133 47.2999 34.8107 47.2999C38.0081 47.2999 39.4627 44.6028 39.4627 42.0217C39.4627 39.4393 38.0081 36.7428 34.8107 36.7428" fill="#C9D1D9"/>
<path fill-rule="evenodd" clip-rule="evenodd" d="M111.825 44.9918H113.777V47.026H111.825V44.9918Z" fill="#C9D1D9"/>
<path d="M122.581 37.5649C123.287 38.1125 123.712 39.0549 123.856 40.3921H122.221C122.121 39.7765 121.894 39.2647 121.54 38.8573C121.184 38.45 120.615 38.246 119.83 38.246C118.759 38.246 117.993 38.7679 117.533 39.8116C117.234 40.4888 117.084 41.3245 117.084 42.3187C117.084 43.3188 117.296 44.1604 117.719 44.8438C118.143 45.5276 118.809 45.8692 119.718 45.8692C120.415 45.8692 120.968 45.6571 121.376 45.2324C121.784 44.808 122.065 44.2273 122.221 43.4899H123.856C123.669 44.8147 123.202 45.7834 122.454 46.3962C121.708 47.009 120.752 47.3153 119.587 47.3153C118.28 47.3153 117.237 46.8382 116.458 45.883C115.68 44.9281 115.291 43.7357 115.291 42.3048C115.291 40.5508 115.717 39.1853 116.571 38.2088C117.424 37.2322 118.51 36.7438 119.83 36.7438C120.957 36.7438 121.874 37.0176 122.581 37.5649ZM132.123 44.6718C132.533 43.83 132.738 42.8932 132.738 41.8619C132.738 40.93 132.59 40.1719 132.294 39.588C131.827 38.6685 131.02 38.2087 129.875 38.2087C128.859 38.2087 128.12 38.6002 127.658 39.3828C127.196 40.1661 126.966 41.1101 126.966 42.2159C126.966 43.2787 127.196 44.1638 127.658 44.8721C128.12 45.5803 128.852 45.9345 129.856 45.9345C130.958 45.9345 131.714 45.5136 132.123 44.6718ZM133.167 38.0304C134.051 38.8881 134.493 40.1497 134.493 41.8152C134.493 43.425 134.104 44.7549 133.325 45.8053C132.546 46.8554 131.337 47.3808 129.699 47.3808C128.332 47.3808 127.247 46.916 126.443 45.987C125.639 45.0578 125.237 43.8104 125.237 42.2438C125.237 40.566 125.661 39.23 126.508 38.2352C127.355 37.2411 128.493 36.7438 129.921 36.7438C131.201 36.7438 132.283 37.1727 133.167 38.0304ZM136.175 37.0331H137.838V38.4513C138.236 37.96 138.597 37.6023 138.921 37.3784C139.476 36.9988 140.104 36.8093 140.808 36.8093C141.605 36.8093 142.246 37.0051 142.732 37.3969C143.006 37.621 143.255 37.9508 143.479 38.3858C143.853 37.8509 144.292 37.4546 144.796 37.1964C145.301 36.9382 145.867 36.8092 146.496 36.8092C147.841 36.8092 148.756 37.2945 149.242 38.2646C149.503 38.7871 149.634 39.4902 149.634 40.3736V47.0259H147.888V40.0842C147.888 39.4186 147.721 38.9613 147.388 38.7126C147.055 38.4636 146.649 38.3394 146.169 38.3394C145.509 38.3394 144.941 38.56 144.464 39.0017C143.988 39.4434 143.75 40.1808 143.75 41.213V47.0259H142.041V40.5039C142.041 39.8262 141.96 39.3315 141.798 39.0205C141.542 38.5536 141.066 38.3206 140.369 38.3206C139.734 38.3206 139.156 38.5664 138.636 39.0577C138.117 39.5493 137.856 40.4384 137.856 41.7262V47.0259H136.175V37.0331ZM150.943 35.2602C150.897 35.2423 150.832 35.2333 150.748 35.2333H150.666V35.6067H150.796C150.876 35.6067 150.937 35.5907 150.981 35.5596C151.025 35.5281 151.047 35.4771 151.047 35.4067C151.047 35.3364 151.012 35.2876 150.943 35.2602H150.943ZM150.328 36.2938V35.0062C150.408 35.0062 150.528 35.0065 150.687 35.0071C150.846 35.0077 150.935 35.0085 150.953 35.0097C151.055 35.0169 151.139 35.0388 151.206 35.0757C151.321 35.1386 151.379 35.2414 151.379 35.383C151.379 35.4912 151.348 35.5693 151.288 35.6173C151.227 35.6654 151.153 35.6942 151.065 35.7035C151.146 35.7206 151.206 35.7453 151.248 35.778C151.323 35.8394 151.361 35.9357 151.361 36.067V36.1818C151.361 36.1945 151.362 36.207 151.364 36.2196C151.365 36.2323 151.368 36.245 151.373 36.2574L151.385 36.2938H151.063C151.053 36.2528 151.045 36.1934 151.042 36.1158C151.038 36.0379 151.031 35.9856 151.02 35.9582C151.004 35.913 150.972 35.8815 150.926 35.8636C150.901 35.8532 150.862 35.8463 150.811 35.8431L150.737 35.8385H150.666V36.2938L150.328 36.2938ZM150.155 34.9751C149.969 35.1641 149.877 35.3883 149.877 35.6479C149.877 35.9165 149.971 36.145 150.159 36.3334C150.346 36.5212 150.573 36.6152 150.838 36.6152C151.101 36.6152 151.327 36.5206 151.514 36.3317C151.701 36.1415 151.795 35.9136 151.795 35.6479C151.795 35.3894 151.702 35.165 151.516 34.9751C151.327 34.7818 151.101 34.6849 150.838 34.6849C150.57 34.6849 150.343 34.7818 150.155 34.9751ZM151.652 36.4813C151.425 36.6997 151.154 36.809 150.838 36.809C150.511 36.809 150.235 36.6972 150.011 36.4736C149.787 36.2497 149.675 35.9747 149.675 35.6479C149.675 35.3083 149.796 35.0262 150.038 34.8015C150.265 34.5917 150.532 34.4865 150.838 34.4865C151.158 34.4865 151.432 34.5998 151.659 34.8268C151.887 35.0536 152 35.3274 152 35.6479C152 35.9776 151.884 36.2555 151.651 36.4813" fill="#C9D1D9"/>
</svg>
