<svg width="160" height="80" viewBox="0 0 160 80" fill="none" xmlns="http://www.w3.org/2000/svg">
<path fill-rule="evenodd" clip-rule="evenodd" d="M128.959 30.6039C129.443 31.0921 129.443 31.8849 128.959 32.3731L121.893 39.5011L128.96 46.6253C129.193 46.861 129.324 47.1796 129.324 47.5118C129.324 47.8439 129.193 48.1626 128.96 48.3982L127.372 50L117.801 40.351C117.578 40.1252 117.453 39.82 117.453 39.5018C117.453 39.1837 117.578 38.8784 117.801 38.6527L127.369 29.001L128.959 30.6039ZM141.671 38.6978C141.882 38.9106 142 39.1984 142 39.4984C142 39.7984 141.882 40.0862 141.671 40.2991L132.056 49.9995L130.395 48.3253C130.181 48.1089 130.061 47.8164 130.061 47.5115C130.061 47.2066 130.181 46.9141 130.395 46.6977L137.531 39.4989L130.456 32.3652C130.225 32.1321 130.096 31.8168 130.096 31.4882C130.096 31.1597 130.225 30.8444 130.456 30.6112L132.053 29L141.671 38.6978ZM113.995 45.4861V45.5916H113.697V46.3754H113.577V45.5916H113.279V45.4856H113.995V45.4861ZM114.101 45.4861H114.272L114.526 46.2378L114.778 45.4855H114.948V46.3754H114.834V45.8504C114.834 45.8321 114.834 45.8021 114.835 45.7601C114.836 45.7181 114.837 45.673 114.837 45.6247L114.585 46.3754H114.466L114.212 45.6247V45.6519C114.212 45.674 114.212 45.7071 114.214 45.7516L114.215 45.8503V46.3753H114.101V45.4854V45.4861ZM107.815 44.4156C109.829 44.4156 111.211 42.7949 111.211 40.6487C111.211 38.5256 109.829 36.9049 107.815 36.9049C105.823 36.9049 104.442 38.5713 104.442 40.6944C104.442 42.7944 105.823 44.4156 107.815 44.4156ZM108.381 46.5618C106.638 46.5618 105.167 45.694 104.397 44.0276V46.3796H102.134V30.8323L104.397 30.3755V37.2929C105.167 35.626 106.638 34.7587 108.381 34.7587C111.301 34.7587 113.633 37.0188 113.633 40.6718C113.633 44.3017 111.301 46.5618 108.381 46.5618H108.381ZM90.3943 41.653V34.9414H92.6577V41.8357C92.6577 43.3425 93.6084 44.3699 95.1932 44.3699C96.7775 44.3699 97.7286 43.343 97.7286 41.8357V34.9414H99.992V41.653C99.992 44.781 98.0677 46.5387 95.1932 46.5387C92.3182 46.5387 90.3943 44.781 90.3943 41.653ZM88.8075 46.5387C86.4761 46.63 85.1858 45.3973 85.1858 42.6353V30.8323L87.4492 30.3755V42.6353C87.4492 43.731 88.0378 44.2329 88.8525 44.2329H89.4411V46.4704C89.2331 46.5156 89.0208 46.5385 88.808 46.5386L88.8075 46.5387ZM73.9783 40.6487C73.9783 37.0188 76.4687 34.7587 79.9318 34.7587C81.5616 34.7587 83.0104 35.2837 84.1195 36.4025L82.7383 38.1145C81.8787 37.2472 80.86 36.9049 79.9543 36.9049C77.872 36.9049 76.4002 38.1602 76.4002 40.6261C76.4002 43.0921 77.872 44.393 79.9543 44.393C80.8595 44.393 81.8787 44.0276 82.7613 43.1146L84.142 44.8041C83.0328 45.9223 81.6066 46.5387 79.9318 46.5387C76.4907 46.5387 73.9783 44.2786 73.9783 40.6487ZM60.5335 45.3291L61.5521 43.2516C62.2993 43.7992 63.6345 44.4156 64.6532 44.4156C65.9209 44.4156 66.419 43.7992 66.419 43.1372C66.4415 42.3613 65.8079 42.0641 64.4721 41.6305C62.2312 40.9458 60.9635 40.1468 60.9635 38.0463C60.9635 36.1284 62.4128 34.7587 65.0382 34.7587C66.3965 34.7587 67.6412 35.1924 68.6374 35.9001L67.6187 37.7953C67.0301 37.4299 66.0339 36.8818 64.9247 36.8818C63.9516 36.8818 63.3629 37.2703 63.3629 38.0232C63.3629 38.6395 63.793 39.0506 65.2193 39.4843C67.6417 40.215 68.8409 41.128 68.8409 43.0458C68.8409 45.2146 67.0981 46.5387 64.6762 46.5387C63.0229 46.5387 61.4391 45.9911 60.5335 45.3291ZM58.9016 31.6539H61.346L59.9203 36.1515H58.0414L58.9016 31.6539ZM50.388 46.3565H48.1241V39.416C48.1241 37.9775 47.3769 36.8818 45.8607 36.8818C44.2079 36.8818 43.0537 38.3429 43.0537 40.2151V46.3565H40.7898V34.9414H43.0537V36.9732C43.7328 35.5347 44.9775 34.7361 46.4263 34.7361C47.9436 34.7361 49.1883 35.5352 49.8669 36.9044C50.8181 35.3976 52.0853 34.7361 53.6025 34.7361C55.979 34.7361 57.7217 36.5395 57.7217 39.4386V46.3565H55.4584V39.416C55.4584 37.9775 54.7112 36.8818 53.1945 36.8818C51.5422 36.8818 50.388 38.3429 50.388 40.2151V46.3565ZM32.9851 36.9049C30.9708 36.9049 29.5895 38.5256 29.5895 40.6718C29.5895 42.7949 30.9708 44.4156 32.9851 44.4156C34.9775 44.4156 36.3582 42.7492 36.3582 40.6261C36.3582 38.5261 34.977 36.9049 32.9851 36.9049ZM36.4032 44.0276C35.6341 45.6945 34.1623 46.5618 32.4195 46.5618C29.4995 46.5618 27.1676 44.3017 27.1676 40.6487C27.1676 37.0188 29.4995 34.7587 32.4195 34.7587C34.1623 34.7587 35.6336 35.626 36.4032 37.2929V34.9414H38.6671V46.356H36.4032V44.0276ZM18.0005 45.3291L19.0192 43.2516C19.7663 43.7992 21.1016 44.4156 22.1202 44.4156C23.388 44.4156 23.8861 43.7992 23.8861 43.1372C23.9086 42.3613 23.2749 42.0641 21.9397 41.6305C19.6978 40.9458 18.4301 40.1468 18.4301 38.0463C18.4301 36.1284 19.8793 34.7587 22.5048 34.7587C23.863 34.7587 25.1077 35.1924 26.1039 35.9001L25.0852 37.7953C24.4966 37.4299 23.5005 36.8818 22.3913 36.8818C21.4181 36.8818 20.8295 37.2703 20.8295 38.0232C20.8295 38.6395 21.2596 39.0506 22.6858 39.4843C25.1083 40.215 26.3074 41.128 26.3074 43.0458C26.3074 45.2146 24.5647 46.5387 22.1427 46.5387C20.4899 46.5387 18.9057 45.9911 18 45.3291H18.0005Z" fill="#C9D1D9"/>
</svg>
