<svg width="160" height="80" viewBox="0 0 160 80" fill="none" xmlns="http://www.w3.org/2000/svg">
<path d="M102.847 42.537C103.06 45.892 105.577 47.8345 108.874 47.8345C111.249 47.8345 114.653 47.1282 114.653 43.9853C114.653 40.9129 111.533 40.4537 108.413 39.8179C105.258 39.1823 102.138 38.3699 102.138 34.6619C102.138 31.0596 105.648 30 108.732 30C112.596 30 115.468 31.6598 115.468 35.7918H114.121C114.085 32.5074 111.781 31.1655 108.732 31.1655C106.251 31.1655 103.486 32.0836 103.486 34.6617C103.486 37.5577 106.605 38.0166 109.548 38.6524C113.164 39.3234 116 40.1709 116 43.9853C116 47.9053 112.065 49 108.874 49C104.726 49 101.606 46.7752 101.5 42.5373H102.847V42.537Z" fill="#C9D1D9"/>
<path d="M95.0836 34.4499H95.1899C95.8989 32.0836 98.8768 30.1767 102.174 30.3179V31.6598C100.756 31.4834 98.7703 31.8364 97.1397 33.4257C95.7926 34.8032 95.2252 35.9333 95.0836 38.6524V48.5762H93.7363V30.4238H95.0836V34.4499Z" fill="#C9D1D9"/>
<path d="M90.8301 48.4919H89.483V44.9739H89.412C88.5612 47.1282 86.115 48.9998 82.6409 48.9998C79.202 48.9998 76.543 47.6933 76.543 43.8789C76.543 39.641 80.2302 38.7583 83.2433 38.5109C89.2702 38.0874 89.5183 37.6987 89.5183 34.7322C89.5183 33.92 88.5967 31.1655 84.4488 31.1655C81.1873 31.1655 79.0247 32.8604 78.8476 36.0036H77.5003C77.6774 32.0131 80.1591 30 84.4488 30C87.6396 30 90.8301 30.9888 90.8301 34.7322V48.4919ZM89.4828 38.264C88.4191 39.4646 85.512 39.3236 82.889 39.6766C79.6982 40.0299 77.8902 41.16 77.8902 43.8792C77.8902 46.0689 79.4856 47.8348 82.6761 47.8348C88.8093 47.8348 89.4828 42.608 89.4828 41.6546V38.264Z" fill="#C9D1D9"/>
<path d="M60.9095 39.6764C60.8387 43.9497 63.1076 47.8345 67.6098 47.8345C71.0487 47.8345 73.4946 45.7863 74.1329 42.4311H75.4799C74.7709 46.669 71.9348 48.9998 67.6098 48.9998C62.292 48.9998 59.4914 44.8326 59.5624 39.8177C59.4914 34.8383 62.1147 30 67.6098 30C73.3176 30 75.8701 34.485 75.6217 39.6764H60.9095ZM74.2747 38.5112C74.2039 34.6973 71.793 31.1657 67.6098 31.1657C63.5685 31.1657 61.1931 34.9091 60.9095 38.5112H74.2747Z" fill="#C9D1D9"/>
<path d="M45.3473 42.537C45.5601 45.8922 48.0773 47.8345 51.3741 47.8345C53.7493 47.8345 57.1529 47.1282 57.1529 43.9853C57.1529 40.9129 54.0332 40.4537 50.9134 39.8179C47.7582 39.1821 44.6385 38.3699 44.6385 34.6617C44.6385 31.0596 48.1479 30 51.2323 30C55.0966 30 57.9682 31.6598 57.9682 35.7918H56.6212C56.5854 32.5074 54.2813 31.1655 51.2326 31.1655C48.7509 31.1655 45.9858 32.0836 45.9858 34.6617C45.9858 37.5577 49.1055 38.0166 52.0479 38.6524C55.6638 39.3234 58.4999 40.1709 58.4999 43.985C58.4999 47.905 54.5646 48.9998 51.3739 48.9998C47.226 48.9998 44.1063 46.7749 44 42.537H45.3473Z" fill="#C9D1D9"/>
</svg>
