<svg width="160" height="80" viewBox="0 0 160 80" fill="none" xmlns="http://www.w3.org/2000/svg">
<path d="M79.3233 16.4166C73.4819 16.4634 67.897 18.8227 63.7913 22.978C59.6855 27.1334 57.3934 32.7463 57.4168 38.5879C57.4402 44.4295 59.7771 50.0238 63.916 54.1462C68.0548 58.2686 73.6584 60.5832 79.5 60.5832C85.3416 60.5832 90.9451 58.2686 95.084 54.1462C99.2229 50.0238 101.56 44.4295 101.583 38.5879C101.607 32.7463 99.3144 27.1334 95.2087 22.978C91.1029 18.8227 85.518 16.4634 79.6767 16.4166H79.3233ZM79.6767 34.0835C80.8318 34.1298 81.9228 34.6271 82.7153 35.4687C83.5079 36.3104 83.9389 37.4292 83.9158 38.5851C83.8926 39.7409 83.4172 40.8416 82.5916 41.6509C81.766 42.4602 80.6561 42.9134 79.5 42.9134C78.3439 42.9134 77.2339 42.4602 76.4083 41.6509C75.5827 40.8416 75.1073 39.7409 75.0842 38.5851C75.0611 37.4292 75.4921 36.3104 76.2846 35.4687C77.0772 34.6271 78.1682 34.1298 79.3233 34.0835H79.6767Z" fill="white"/>
<path fill-rule="evenodd" clip-rule="evenodd" d="M79.3057 12H79.6943L79.712 12.0001C86.7217 12.0562 93.4235 14.8874 98.3504 19.8738C103.277 24.8603 106.028 31.5957 106 38.6056C105.972 45.6156 103.167 52.3288 98.2008 57.2757C93.2342 62.2225 86.5099 65 79.5 65C72.4901 65 65.7658 62.2225 60.7992 57.2757C55.8326 52.3288 53.0283 45.6156 53.0002 38.6056C52.9722 31.5957 55.7227 24.8603 60.6496 19.8738C65.5765 14.8874 72.2784 12.0562 79.288 12.0001L79.3057 12ZM79.342 20.8335C74.6749 20.8752 70.2137 22.7621 66.9331 26.0824C63.6485 29.4067 61.8148 33.897 61.8335 38.5703C61.8522 43.2436 63.7217 47.7191 67.0328 51.017C70.3439 54.3149 74.8268 56.1665 79.5 56.1665C84.1733 56.1665 88.6561 54.3149 91.9672 51.017C95.2783 47.7191 97.1478 43.2436 97.1665 38.5703C97.1852 33.897 95.3516 29.4067 92.0669 26.0824C88.7863 22.7621 84.3251 20.8752 79.658 20.8335H79.342ZM79.235 29.6669H79.765L79.8533 29.6704C82.1636 29.7629 84.3456 30.7576 85.9307 32.4408C87.5159 34.1241 88.3778 36.3618 88.3316 38.6735C88.2853 40.9852 87.3345 43.1867 85.6833 44.8052C84.0321 46.4237 81.8121 47.3303 79.5 47.3303C77.1879 47.3303 74.9679 46.4237 73.3167 44.8052C71.6655 43.1867 70.7147 40.9852 70.6684 38.6735C70.6222 36.3618 71.4842 34.1241 73.0693 32.4408C74.6544 30.7576 76.8364 29.7629 79.1467 29.6704L79.235 29.6669Z" fill="#C9D1D9"/>
</svg>
