<svg width="160" height="80" viewBox="0 0 160 80" fill="none" xmlns="http://www.w3.org/2000/svg">
<path d="M29.2366 50.5084C26.816 50.5084 24.8558 51.8786 23.9096 52.8498C23.9096 52.8498 21.6069 55.1067 20.0478 55.8882C19.9795 55.9252 19.9807 56 20.0757 56H34.1686C36.9546 56 38.2645 55.0666 39.9179 53.6025C39.9179 53.6025 42.3253 51.3898 43.9763 50.6754C44.1427 50.6131 44.1034 50.5084 43.9763 50.5084H29.2366ZM53.4476 50.5084C51.027 50.5084 49.0686 51.8786 48.1206 52.8498C48.1206 52.8498 45.8185 55.1067 44.2594 55.8882C44.1905 55.9252 44.1917 56 44.2873 56H58.4081C61.1935 56 62.5045 55.0666 64.1574 53.6025C64.1574 53.6025 66.5381 51.3898 68.1879 50.6754C68.3543 50.6131 68.3422 50.5084 68.2158 50.5084H53.4476ZM77.6865 50.5084C75.2665 50.5084 73.3069 51.8786 72.3594 52.8498C72.3594 52.8498 70.0568 55.1067 68.4977 55.8882C68.4299 55.9252 68.4317 56 68.5267 56H82.6475C85.4329 56 86.7149 55.0666 88.369 53.6025C88.369 53.6025 90.7763 51.3898 92.4268 50.6754C92.5938 50.6131 92.5816 50.5084 92.4552 50.5084H77.6865ZM101.897 50.5084C99.4781 50.5084 97.5463 51.8786 96.5983 52.8498C96.5983 52.8498 94.2678 55.1067 92.7081 55.8882C92.6403 55.9252 92.6422 56 92.7371 56H106.857C109.643 56 110.954 55.0666 112.607 53.6025C112.607 53.6025 115.016 51.3898 116.666 50.6754C116.834 50.6131 116.792 50.5084 116.666 50.5084H101.897ZM126.136 50.5084C123.716 50.5084 121.755 51.8786 120.809 52.8498C120.809 52.8498 118.505 55.1067 116.946 55.8882C116.877 55.9252 116.88 56 116.974 56H131.096C133.882 56 135.191 55.0666 136.846 53.6025C136.846 53.6025 139.227 51.3898 140.875 50.6754C141.042 50.6131 141.032 50.5084 140.904 50.5084H126.136Z" fill="#C9D1D9" stroke="white" stroke-width="0.36309" stroke-miterlimit="11.474"/>
<path d="M78.5607 24C73.4091 24 68.3857 25.5126 68.3857 30.5782C68.3857 39.3505 83.8587 34.7163 83.8587 40.0835C83.8587 41.833 81.115 42.5367 78.8989 42.5367C74.9179 42.5367 72.1743 41.9509 68.6961 39.8884V44.2922C71.2891 45.1377 74.8169 45.5469 78.6454 45.5469C83.9894 45.5469 88.9891 44.1821 88.9891 38.9963C88.9891 29.8368 73.5155 33.9522 73.5155 29.4635C73.5155 27.6559 75.9985 27.0384 78.1668 27.0384C81.8156 27.0384 85.7548 28.0945 87.9188 30.0762V25.3935C85.1183 24.5194 81.3999 24 78.5607 24ZM105.9 24.0556C96.6073 24.0556 90.4544 28.4732 90.4544 35.2052C90.4544 41.3837 96.1015 45.5188 104.547 45.5188C107.283 45.5188 109.724 45.164 112.579 44.4867V39.2739C110.561 41.3825 108.163 42.2285 105.589 42.2285C100.602 42.2285 97.1899 39.1554 97.1899 34.7301C97.1899 30.3652 100.727 27.176 105.673 27.176C108.368 27.176 110.528 28.1453 112.268 29.8249V24.6121C110.459 24.2435 108.191 24.0556 105.9 24.0556ZM127.573 24.0556C119.565 24.0556 113.903 28.6144 113.903 35.0376C113.903 41.3388 118.988 45.5194 126.559 45.5194C134.602 45.5194 140.143 41.0749 140.143 34.6206C140.145 28.2877 135.106 24.0556 127.573 24.0556ZM20.838 24.6965V29.6304C22.5785 28.2961 26.2188 27.7929 30.1949 27.763V41.2257C30.1949 43.1835 30.0201 43.7411 29.1803 44.7661H37.0442C36.1615 43.7411 36.029 43.1835 36.029 41.2257V27.6505C39.4751 27.6804 43.5891 28.2949 45.3297 29.631V24.6971H20.838V24.6965ZM47.4442 24.6965C48.267 25.7208 48.4303 26.3048 48.4303 28.2644V41.2257C48.4303 43.1835 48.2815 43.7716 47.5004 44.7661H66.4969V39.8884C63.8906 41.7235 58.9301 41.7301 56.9143 41.6996H54.1524V36.0973H56.1816C57.5568 36.0973 60.0379 36.2583 61.4802 36.6831V32.5025C60.0585 32.9542 57.5525 33.0882 56.1816 33.0882H54.1524V27.7654H56.9143C59.3821 27.7654 63.674 28.2704 65.2851 29.6053V24.6995H47.4442V24.6965ZM127.039 27.094C131.233 27.094 134 30.5255 134 34.7594C134 38.9933 131.233 42.4254 127.039 42.4254C122.777 42.4254 120.048 38.9933 120.048 34.7594C120.048 30.5261 122.777 27.094 127.039 27.094Z" fill="#C9D1D9" stroke="white" stroke-width="0.138408" stroke-miterlimit="3.864"/>
</svg>
