<svg width="160" height="80" viewBox="0 0 160 80" fill="none" xmlns="http://www.w3.org/2000/svg">
<path d="M8 30.3453C8 30.3453 11.5829 45.1227 12.1547 47.5213C12.8221 50.3209 14.0247 51.3513 17.4919 50.6564L19.7291 41.4945C20.2961 39.2188 20.6765 37.5963 21.0409 35.2813H21.105C21.3612 37.6191 21.7259 39.2255 22.1925 41.5024C22.1925 41.5024 23.1033 45.6617 23.5696 47.8463C24.0372 50.0301 25.3385 51.4065 28.7347 50.6571L34.0655 30.3468H29.7615L27.9416 39.1279C27.4523 41.684 27.0083 43.6812 26.6659 46.0196H26.6052C26.2942 43.7046 25.8984 41.7865 25.401 39.2961L23.506 30.3468H19.0215L16.9946 39.0706C16.4203 41.7215 15.8832 43.8622 15.5417 46.1212H15.4799C15.1301 43.9938 14.6642 41.3034 14.1598 38.7373C14.1598 38.7373 12.9555 32.4976 12.533 30.3468L8.00039 30.3475L8 30.3453ZM49.0295 30.3453V50.6556H53.1273V30.3444H49.0295V30.3453ZM106.742 30.3453V45.3285C106.742 47.3943 107.129 48.8417 107.955 49.7259C108.677 50.4992 109.866 51 111.291 51C112.503 51 113.695 50.7687 114.256 50.5581L114.204 47.3349C113.786 47.4385 113.305 47.5214 112.647 47.5214C111.251 47.5214 110.783 46.6215 110.783 44.7667V39.0342H114.352V35.1482H110.783V30.3454H106.742L106.742 30.3453ZM39.872 35.0537C37.3253 35.0537 35.3037 35.7733 34.2018 36.4143L35.0083 39.1936C36.0167 38.5538 37.6225 38.024 39.1429 38.024C41.6601 38.0175 42.0717 39.4567 42.0717 40.3796V40.5979C36.5866 40.5897 33.1219 42.5 33.1219 46.3942C33.1219 48.7718 34.8856 50.9999 37.9525 50.9999C39.8404 50.9999 41.4194 50.2421 42.3656 49.0278H42.4584C42.4584 49.0278 43.085 51.6648 46.5373 50.6564C46.3559 49.5589 46.297 48.3887 46.297 46.9792V41.5534C46.297 38.0953 44.83 35.0538 39.872 35.0538V35.0537ZM64.3842 35.0537C61.82 35.0537 60.6677 36.3616 59.969 37.4713H59.9083V35.3981H55.9976V50.6566H60.1172V41.7081C60.1172 41.2886 60.1649 40.8451 60.3103 40.4591C60.6517 39.5581 61.4845 38.5042 62.8141 38.5042C64.4763 38.5042 65.2541 39.9187 65.2541 41.9601V50.6564H69.3693V41.5997C69.3693 41.1993 69.4238 40.7169 69.5409 40.3629C69.8792 39.338 70.777 38.5041 72.013 38.5041C73.6981 38.5041 74.5069 39.8939 74.5069 42.296V50.6564H78.6249V41.6697C78.6249 36.9303 76.2339 35.0538 73.5349 35.0538C72.3396 35.0538 71.3961 35.3554 70.5432 35.8826C69.8262 36.3254 69.1844 36.9545 68.6233 37.7829H68.5626C67.9098 36.1385 66.3784 35.0538 64.3835 35.0538L64.3842 35.0537ZM87.0059 35.0537C84.4599 35.0537 82.4387 35.7733 81.3358 36.4143L82.1433 39.1936C83.1508 38.5538 84.7576 38.024 86.2772 38.024C88.7927 38.0175 89.2052 39.4567 89.2052 40.3796V40.5979C83.7209 40.5897 80.2558 42.5 80.2558 46.3942C80.2558 48.7718 82.0205 50.9999 85.089 50.9999C86.9753 50.9999 88.5548 50.2421 89.4994 49.0278H89.5925C89.5925 49.0278 90.219 51.6648 93.6717 50.6564C93.4901 49.5589 93.4318 48.3887 93.4318 46.9792V41.5534C93.4318 38.0953 91.9644 35.0538 87.0059 35.0538V35.0537ZM104.113 35.0537C102.536 35.0537 100.741 36.0786 99.9877 38.2757H99.8727V35.3979H96.1643V50.6564H100.392V42.8431C100.392 42.4216 100.417 42.0541 100.484 41.717C100.796 40.0804 102.04 39.0341 103.825 39.0341C104.315 39.0341 104.666 39.0875 105.045 39.1426V35.1481C104.727 35.0834 104.509 35.0535 104.114 35.0535L104.113 35.0537ZM42.204 43.3018V45.2053C42.204 45.4869 42.1797 45.7774 42.1022 46.0314C41.785 47.0886 40.6969 47.982 39.3368 47.982C38.2028 47.982 37.3019 47.3342 37.3019 45.9637C37.3019 43.8676 39.5944 43.2882 42.2042 43.3018H42.204ZM89.338 43.3018V45.2053C89.338 45.4869 89.3131 45.7774 89.2362 46.0314C88.919 47.0886 87.8313 47.982 86.4711 47.982C85.3368 47.982 84.4358 47.3342 84.4358 45.9637C84.4358 43.8676 86.7284 43.2882 89.3381 43.3018H89.338Z" fill="#C9D1D9"/>
<path d="M136.507 23C135.185 23 134.133 23.7435 134.133 24.6488L134.936 33.8052C135.025 34.3569 135.697 34.7824 136.508 34.7824C137.321 34.7813 137.991 34.3562 138.081 33.8052L138.888 24.6488C138.888 23.7436 137.834 23.0001 136.509 23.0001L136.507 23ZM123.415 30.3448C122.728 30.3612 121.948 30.8846 121.452 31.7506C120.788 32.9039 120.906 34.1926 121.682 34.6447L129.962 38.5254C130.479 38.719 131.181 38.3494 131.588 37.6435V37.6431C131.996 36.9338 131.965 36.1363 131.535 35.7825L124.057 30.5037C123.863 30.3905 123.645 30.3395 123.416 30.345L123.415 30.3448ZM149.6 30.3448C149.371 30.3394 149.153 30.3903 148.959 30.5035L141.481 35.7824C141.053 36.1361 141.021 36.9337 141.428 37.643L141.428 37.6434C141.836 38.3492 142.537 38.7189 143.054 38.5253L151.336 34.6448C152.116 34.1927 152.228 32.904 151.569 31.7507C151.07 30.8846 150.289 30.3613 149.602 30.345L149.6 30.3448ZM130.271 42.4255C130.164 42.424 130.06 42.4406 129.963 42.4775L121.684 46.3535C120.907 46.8076 120.789 48.0968 121.453 49.2512C122.115 50.4022 123.281 50.9493 124.058 50.498L131.536 45.2232C131.966 44.8652 131.998 44.0679 131.589 43.3593L131.592 43.3608C131.262 42.7836 130.735 42.4317 130.271 42.4253L130.271 42.4255ZM142.748 42.4255C142.284 42.4319 141.758 42.7837 141.427 43.3609L141.43 43.3593C141.023 44.068 141.055 44.8654 141.482 45.2234L148.961 50.4981C149.736 50.9495 150.904 50.4023 151.568 49.2514C152.227 48.0969 152.116 46.8077 151.336 46.3537L143.056 42.4776C142.958 42.4408 142.855 42.4242 142.748 42.4256L142.748 42.4255ZM136.506 46.2202C135.696 46.2212 135.026 46.645 134.938 47.1952L134.134 56.3512C134.134 57.258 135.186 58 136.509 58C137.834 58 138.887 57.258 138.887 56.3512L138.082 47.1951C137.992 46.645 137.322 46.2213 136.509 46.2202H136.506H136.506Z" fill="#C9D1D9"/>
</svg>
