<svg width="35" height="35" viewBox="0 0 35 35" fill="none" xmlns="http://www.w3.org/2000/svg">
<path d="M25.0762 3.77306C24.6831 3.54244 24.231 3.43199 23.7759 3.45535C23.3207 3.4787 22.8824 3.63485 22.515 3.9045L4.78903 16.714C4.38972 17.0024 4.09077 17.4087 3.93417 17.8758C3.77756 18.3428 3.77117 18.8472 3.91587 19.3181C4.06058 19.789 4.34913 20.2027 4.741 20.5012C5.13287 20.7997 5.60839 20.968 6.10079 20.9824L14.8966 21.2435C14.9248 21.2443 14.9523 21.252 14.9767 21.266C15.0011 21.28 15.0217 21.2999 15.0365 21.3238L19.66 28.8108C19.9155 29.2329 20.2985 29.563 20.7538 29.7533C21.209 29.9436 21.713 29.9844 22.1929 29.8698C22.6724 29.7585 23.1053 29.5004 23.4314 29.1317C23.7575 28.7629 23.9606 28.3016 24.0124 27.8121L26.2429 6.05565C26.2929 5.60277 26.2091 5.14517 26.0017 4.73946C25.7943 4.33376 25.4725 3.99776 25.0762 3.77306Z" fill="url(#paint0_linear_2_386)"/>
<defs>
<linearGradient id="paint0_linear_2_386" x1="13.4169" y1="6.1777" x2="15.2069" y2="31.5247" gradientUnits="userSpaceOnUse">
<stop stop-color="#1B74E4"/>
<stop offset="1" stop-color="#1B74E4" stop-opacity="0.4"/>
</linearGradient>
</defs>
</svg>
