<svg width="26" height="26" viewBox="0 0 26 26" fill="none" xmlns="http://www.w3.org/2000/svg">
<g clip-path="url(#clip0_2_369)">
<path fill-rule="evenodd" clip-rule="evenodd" d="M16.2155 0.822785C18.4724 1.45522 20.3685 2.55961 21.9038 4.13597C23.423 5.68478 24.5196 7.59747 25.0885 9.69112C25.6765 11.8181 25.6782 14.0238 25.0936 16.3084C24.1944 19.4076 22.4983 21.8059 20.0053 23.5033C17.5122 25.2008 14.7107 25.9135 12.0491 25.7613L14.3903 17.024L16.774 17.6627L18.2331 14.3736L14.6236 13.4064L15.2262 11.1576C15.3311 10.686 15.6012 10.2675 15.9878 9.97775C16.3751 9.68713 16.9352 9.62993 17.6682 9.80616L19.8479 10.3902L20.6538 7.38247C20.6252 7.36403 20.3391 7.24473 19.7955 7.02455C19.1779 6.77909 18.5473 6.56743 17.9067 6.3905C16.4519 6.00788 15.193 6.10983 14.1299 6.69636C13.0668 7.28266 12.3199 8.34289 11.8892 9.87706L11.1901 12.4864L8.4432 11.7504L7.52318 15.184L10.27 15.92L7.92887 24.6573C4.97328 23.3044 2.9035 21.2864 1.59316 18.5698C0.282821 15.8532 0.0131345 12.9282 0.783993 9.79464C1.41999 7.52377 2.52434 5.61439 4.09704 4.06648C5.63658 2.53779 7.54256 1.42963 9.63272 0.847953C11.7503 0.25061 13.9446 0.242221 16.2155 0.822785Z" fill="url(#paint0_linear_2_369)"/>
</g>
<defs>
<linearGradient id="paint0_linear_2_369" x1="16.2155" y1="0.822791" x2="5.08768" y2="23.6774" gradientUnits="userSpaceOnUse">
<stop stop-color="#1B74E4"/>
<stop offset="1" stop-color="#1B74E4" stop-opacity="0.4"/>
</linearGradient>
<clipPath id="clip0_2_369">
<rect width="26" height="26" fill="white"/>
</clipPath>
</defs>
</svg>
