<svg width="18" height="18" viewBox="0 0 18 18" fill="none" xmlns="http://www.w3.org/2000/svg">
<path d="M15.1435 2.85691C14.9789 2.69003 14.769 2.57499 14.5398 2.52601C14.3106 2.47703 14.0721 2.49624 13.8537 2.58129L3.34307 6.58511C3.10631 6.67526 2.90372 6.83729 2.76376 7.04846C2.6238 7.25963 2.55348 7.50934 2.56269 7.76251C2.5719 8.01569 2.66017 8.25962 2.8151 8.46007C2.97004 8.66051 3.18386 8.8074 3.42654 8.88011L7.76122 10.1806C7.77511 10.1847 7.78775 10.1922 7.79801 10.2024C7.80827 10.2126 7.81583 10.2252 7.82001 10.2391L9.12022 14.5738C9.19098 14.8175 9.33732 15.0324 9.53813 15.1876C9.73894 15.3427 9.98385 15.4301 10.2375 15.437C10.4906 15.4455 10.7399 15.375 10.951 15.2352C11.1621 15.0954 11.3244 14.8933 11.4153 14.657L15.4192 4.14611C15.5044 3.9278 15.5236 3.68932 15.4746 3.46018C15.4256 3.23104 15.3105 3.0213 15.1435 2.85691Z" fill="#1B74E4"/>
</svg>
