<svg width="81" height="149" viewBox="0 0 81 149" fill="none" xmlns="http://www.w3.org/2000/svg">
<path d="M28.6056 149L24.9439 138.049L17.2909 146.696L28.6056 149ZM21.3644 140.467C20.0292 138.941 18.7677 137.373 17.5789 135.767L15.9716 136.957C17.1925 138.606 18.488 140.217 19.8593 141.784L21.3644 140.467ZM13.152 129.058C12.1317 127.313 11.1862 125.535 10.3145 123.728L8.51303 124.597C9.40764 126.451 10.3781 128.277 11.4257 130.067L13.152 129.058ZM7.1999 116.302C6.51721 114.405 5.90811 112.484 5.37144 110.544L3.44383 111.077C3.99373 113.065 4.61804 115.034 5.31805 116.979L7.1999 116.302ZM3.60659 102.682C3.26089 100.697 2.98622 98.6984 2.78144 96.6918L0.791773 96.8949C1.00128 98.9477 1.28234 100.993 1.63624 103.025L3.60659 102.682ZM2.33229 88.6394C2.31165 86.6234 2.35904 84.6053 2.47327 82.59L0.476478 82.4768C0.359744 84.5362 0.311297 86.5988 0.332397 88.6599L2.33229 88.6394ZM3.28279 74.5621C3.5726 72.5651 3.92749 70.5772 4.34626 68.6029L2.38979 68.1879C1.96207 70.2044 1.59957 72.235 1.30352 74.2749L3.28279 74.5621ZM6.3598 60.7879C6.94756 58.856 7.59772 56.9442 8.30905 55.0571L6.4376 54.3517C5.71088 56.2795 5.04675 58.2325 4.4464 60.2057L6.3598 60.7879ZM11.4833 47.6405C12.3592 45.8209 13.295 44.0326 14.2896 42.2804L12.5502 41.2931C11.5332 43.085 10.5765 44.9132 9.68121 46.773L11.4833 47.6405ZM18.589 35.4588C19.7432 33.804 20.955 32.1919 22.2229 30.6274L20.6691 29.3681C19.3705 30.9705 18.1299 32.621 16.9486 34.3146L18.589 35.4588ZM27.5978 24.6274C29.0143 23.1973 30.4853 21.8211 32.0097 20.5036L30.7018 18.9905C29.1378 20.3423 27.6291 21.7538 26.1768 23.22L27.5978 24.6274ZM38.3697 15.57C40.0182 14.4273 41.7173 13.3483 43.466 12.3375L42.4652 10.606C40.6685 11.6445 38.9232 12.7528 37.2303 13.9263L38.3697 15.57ZM50.638 8.70624C52.4666 7.90472 54.341 7.17362 56.26 6.51723L55.6127 4.62487C53.6407 5.29938 51.7145 6.05072 49.8351 6.87447L50.638 8.70624ZM63.9945 4.33961C65.9345 3.90631 67.9141 3.54603 69.9324 3.26255L69.6543 1.28199C67.5831 1.57289 65.5509 1.94272 63.5585 2.38771L63.9945 4.33961ZM77.9485 2.55646C78.9571 2.51896 79.9744 2.5 81.0001 2.5V0.5C79.9497 0.499998 78.9077 0.519411 77.8742 0.557837L77.9485 2.55646Z" fill="#C9D1D9"/>
</svg>
