<svg width="32" height="32" viewBox="0 0 32 32" fill="none" xmlns="http://www.w3.org/2000/svg">
<path d="M31.9286 20.1089C32.0732 19.7583 31.9926 19.3554 31.7253 19.0871L27.9128 15.3371C27.7371 15.1614 27.499 15.0625 27.25 15.0625H4.75001C4.50101 15.0625 4.26295 15.1614 4.0872 15.3372L0.274699 19.0872C0.00738672 19.3554 -0.0731758 19.7583 0.0714492 20.1089C0.216074 20.4596 0.558512 20.6875 0.937512 20.6875H12.25C12.499 20.6875 12.7371 20.5886 12.9128 20.4128L16 17.3257L19.0872 20.4129C19.263 20.5886 19.501 20.6875 19.75 20.6875H31.0625C31.4415 20.6875 31.784 20.4596 31.9286 20.1089Z" fill="#1B74E4"/>
<path d="M15.0625 20.9146L14.2385 21.7386C13.7075 22.2695 13.0007 22.5625 12.25 22.5625H3.8125V31.0625C3.8125 31.5807 4.23181 32 4.75 32H15.0625V20.9146Z" fill="#1B74E4"/>
<path d="M28.1875 31.0625V22.5625H19.75C18.9992 22.5625 18.2925 22.2695 17.7615 21.7385L16.9375 20.9146V32H27.25C27.7682 32 28.1875 31.5807 28.1875 31.0625Z" fill="#1B74E4"/>
<path d="M9.4375 11.3125H7.5625C7.04431 11.3125 6.625 11.7318 6.625 12.25V13.1875H10.375V12.25C10.375 11.7318 9.95569 11.3125 9.4375 11.3125Z" fill="#FF5288"/>
<path d="M15.0625 5.6875C14.5443 5.6875 14.125 6.10681 14.125 6.625V13.1875H17.875V6.625C17.875 6.10681 17.4557 5.6875 16.9375 5.6875H15.0625Z" fill="#FF5288"/>
<path d="M22.5625 0C22.0443 0 21.625 0.419312 21.625 0.9375V13.1875H25.375V0.9375C25.375 0.419312 24.9557 0 24.4375 0H22.5625Z" fill="#FF5288"/>
</svg>
