<svg width="32" height="32" viewBox="0 0 32 32" fill="none" xmlns="http://www.w3.org/2000/svg">
<path d="M22.2283 21.0934C22.1211 21.75 21.9507 22.3842 21.7211 22.9908L23.7809 24.8572C23.4921 25.4651 23.1632 26.0493 22.7836 26.598L20.1388 25.7454C19.7217 26.2553 19.2546 26.7217 18.7447 27.1388L19.5974 29.7836C19.0487 30.1632 18.4645 30.4914 17.8566 30.7809L15.9901 28.7211C15.3836 28.9507 14.75 29.1211 14.0928 29.2283L13.5053 31.9493C13.173 31.9757 12.8395 32 12.5 32C12.1605 32 11.827 31.9757 11.4941 31.9493L10.9066 29.2283C10.25 29.1211 9.61579 28.9507 9.00921 28.7211L7.14276 30.7809C6.53487 30.4921 5.95066 30.1632 5.40197 29.7836L6.25461 27.1388C5.74474 26.7217 5.27829 26.2546 4.86118 25.7454L2.21645 26.598C1.83684 26.0493 1.50855 25.4651 1.21908 24.8572L3.27895 22.9908C3.04934 22.3842 2.87895 21.7507 2.77171 21.0934L0.0506578 20.5059C0.024342 20.173 0 19.8395 0 19.5C0 19.1605 0.024342 18.827 0.0506578 18.4941L2.77171 17.9066C2.87895 17.25 3.04934 16.6158 3.27895 16.0092L1.21908 14.1428C1.50789 13.5349 1.83684 12.9507 2.21645 12.402L4.86118 13.2546C5.27829 12.7447 5.74539 12.2783 6.25526 11.8612L5.40263 9.21645C5.95132 8.83684 6.53553 8.50855 7.14342 8.21908L9.00987 10.2789C9.61645 10.0493 10.25 9.87895 10.9072 9.77171L11.4947 7.05066C11.827 7.02434 12.1605 7 12.5 7C12.8395 7 13.173 7.02434 13.5059 7.05066L14.0934 9.77171C14.75 9.87895 15.3842 10.0493 15.9908 10.2789L17.8572 8.21908C18.4651 8.5079 19.0493 8.83684 19.598 9.21645L18.7454 11.8612C19.2553 12.2783 19.7217 12.7454 20.1388 13.2553L22.7836 12.4026C23.1632 12.9513 23.4914 13.5355 23.7809 14.1434L21.7211 16.0099C21.9507 16.6164 22.1211 17.25 22.2283 17.9072L24.9493 18.4947C24.9757 18.827 25 19.1605 25 19.5C25 19.8395 24.9757 20.173 24.9493 20.5059L22.2283 21.0934ZM12.5 12.9211C8.86645 12.9211 5.92105 15.8664 5.92105 19.5C5.92105 23.1336 8.86645 26.0789 12.5 26.0789C16.1336 26.0789 19.0789 23.1336 19.0789 19.5C19.0789 15.8664 16.1336 12.9211 12.5 12.9211Z" fill="#1B74E4"/>
<path d="M30.4814 6.04773C30.4105 6.28273 30.3177 6.50818 30.2036 6.72045L30.9214 8.09591C30.6791 8.40227 30.4027 8.67864 30.0964 8.92091L28.7209 8.20318C28.5086 8.31773 28.2832 8.41045 28.0482 8.48091L27.5827 9.96273C27.3909 9.98545 27.1973 10 27 10C26.8027 10 26.6091 9.98546 26.4177 9.96318L25.9523 8.48136C25.7173 8.41091 25.4918 8.31773 25.2795 8.20364L23.9041 8.92136C23.5977 8.67909 23.3214 8.40273 23.0791 8.09636L23.7968 6.72091C23.6823 6.50864 23.5895 6.28318 23.5191 6.04818L22.0373 5.58273C22.0145 5.39091 22 5.19727 22 5C22 4.80273 22.0145 4.60909 22.0368 4.41773L23.5186 3.95227C23.5891 3.71727 23.6823 3.49182 23.7964 3.27955L23.0786 1.90409C23.3209 1.59773 23.5973 1.32136 23.9036 1.07909L25.2791 1.79682C25.4914 1.68227 25.7168 1.58955 25.9518 1.51909L26.4173 0.0372727C26.6091 0.0145455 26.8027 0 27 0C27.1973 0 27.3909 0.0145455 27.5823 0.0368182L28.0477 1.51864C28.2827 1.58909 28.5082 1.68227 28.7205 1.79636L30.0959 1.07864C30.4023 1.32091 30.6786 1.59727 30.9209 1.90364L30.2032 3.27909C30.3177 3.49136 30.4105 3.71682 30.4809 3.95182L31.9627 4.41727C31.9855 4.60909 32 4.80273 32 5C32 5.19727 31.9855 5.39091 31.9632 5.58227L30.4814 6.04773ZM27 3.18182C25.9959 3.18182 25.1818 3.99591 25.1818 5C25.1818 6.00409 25.9959 6.81818 27 6.81818C28.0041 6.81818 28.8182 6.00409 28.8182 5C28.8182 3.99591 28.0041 3.18182 27 3.18182Z" fill="#FF5288"/>
<circle cx="12.5" cy="19.5" r="6.5" stroke="#1B74E4" stroke-width="2"/>
</svg>
