<svg width="32" height="32" viewBox="0 0 32 32" fill="none" xmlns="http://www.w3.org/2000/svg">
<path d="M26.9318 4H2.06816C1.47831 4 1 4.49376 1 5.10265V22.8973C1 23.5062 1.47831 24 2.06816 24H17.3688C17.2133 23.3429 17.1331 22.6624 17.1331 21.9688C17.1331 20.2113 17.6468 18.5357 18.6002 17.1236C18.5941 17.0755 18.5898 17.0268 18.5898 16.9769V11.0233C18.5898 10.4142 19.0681 9.9204 19.6579 9.9204C20.2481 9.9204 20.7261 10.4142 20.7261 11.0233V14.9474C21.1393 14.6557 21.5747 14.4041 22.0286 14.1965V11.0231C22.0286 10.4142 22.5066 9.9204 23.0968 9.9204C23.6866 9.9204 24.1649 10.4142 24.1649 11.0231V13.5619C24.5582 13.5029 24.9585 13.4728 25.3634 13.4728C26.2739 13.4728 27.1616 13.6247 28 13.9164V5.10265C28 4.49376 27.5217 4 26.9318 4ZM6.9714 16.9767C6.9714 17.5858 6.49309 18.0793 5.90324 18.0793C5.31339 18.0793 4.83508 17.5858 4.83508 16.9767V11.0231C4.83508 10.4142 5.31339 9.9204 5.90324 9.9204C6.49309 9.9204 6.9714 10.4142 6.9714 11.0231V16.9767ZM10.4102 16.9767C10.4102 17.5858 9.9319 18.0793 9.34205 18.0793C8.7522 18.0793 8.27389 17.5858 8.27389 16.9767V11.0231C8.27389 10.4142 8.7522 9.9204 9.34205 9.9204C9.9319 9.9204 10.4102 10.4142 10.4102 11.0231V16.9767ZM13.8488 16.9767C13.8488 17.5858 13.3704 18.0793 12.7806 18.0793C12.1907 18.0793 11.7124 17.5858 11.7124 16.9767V11.0231C11.7124 10.4142 12.1907 9.9204 12.7806 9.9204C13.3704 9.9204 13.8488 10.4142 13.8488 11.0231V16.9767ZM17.2876 16.9767C17.2876 17.5858 16.8093 18.0793 16.2194 18.0793C15.6293 18.0793 15.151 17.5858 15.151 16.9767V11.0231C15.151 10.4142 15.6293 9.9204 16.2194 9.9204C16.8093 9.9204 17.2876 10.4142 17.2876 11.0231V16.9767Z" fill="#1B74E4"/>
<path d="M29.829 23.9385C29.6115 24.0068 29.4457 24.1818 29.3588 24.3925C29.2718 24.6033 29.2668 24.8415 29.3723 25.0438L29.6509 25.5776C29.8154 25.8929 29.7844 26.2809 29.5329 26.5324C29.2814 26.784 28.8934 26.815 28.578 26.6504L28.0442 26.3719C27.842 26.2664 27.6038 26.2717 27.3929 26.3586C27.1823 26.4455 27.0073 26.6111 26.939 26.8286L26.7578 27.4053C26.6513 27.7445 26.3555 28 26 28C25.6449 28 25.3492 27.745 25.2428 27.4062L25.0616 26.8293C24.9932 26.6117 24.818 26.4459 24.6072 26.3588C24.3966 26.2718 24.1586 26.2667 23.9566 26.3722L23.4224 26.6509C23.1071 26.8154 22.7191 26.7844 22.4676 26.5329C22.216 26.2814 22.185 25.8934 22.3496 25.578L22.6281 25.0442C22.7336 24.842 22.7283 24.6038 22.6414 24.3929C22.5545 24.1823 22.3889 24.0073 22.1714 23.939L21.5947 23.7578C21.2555 23.6513 21 23.3555 21 23C21 22.6449 21.255 22.3492 21.5938 22.2428L22.1707 22.0616C22.3883 21.9932 22.5541 21.818 22.6412 21.6072C22.7282 21.3966 22.7333 21.1586 22.6278 20.9566L22.3491 20.4224C22.1846 20.1071 22.2156 19.7191 22.4671 19.4676C22.7186 19.216 23.1066 19.185 23.422 19.3496L23.9558 19.6281C24.158 19.7336 24.3962 19.7283 24.6071 19.6414C24.8177 19.5545 24.9927 19.3889 25.061 19.1714L25.2422 18.5947C25.3487 18.2555 25.6445 18 26 18C26.3551 18 26.6508 18.255 26.7572 18.5938L26.9384 19.1707C27.0068 19.3883 27.182 19.5541 27.3928 19.6412C27.6034 19.7282 27.8414 19.7333 28.0434 19.6278L28.5776 19.3491C28.8929 19.1846 29.2809 19.2156 29.5324 19.4671C29.784 19.7186 29.815 20.1066 29.6504 20.422L29.3719 20.9558C29.2664 21.158 29.2717 21.3962 29.3586 21.6071C29.4455 21.8177 29.6111 21.9927 29.8286 22.061L30.4053 22.2422C30.7445 22.3487 31 22.6445 31 23C31 23.3551 30.745 23.6508 30.4062 23.7572L29.829 23.9385ZM26 21.1818C24.9959 21.1818 24.1818 21.9959 24.1818 23C24.1818 24.0041 24.9959 24.8182 26 24.8182C27.0041 24.8182 27.8182 24.0041 27.8182 23C27.8182 21.9959 27.0041 21.1818 26 21.1818Z" fill="#FF5288"/>
</svg>
