<svg width="125" height="89" viewBox="0 0 125 89" fill="none" xmlns="http://www.w3.org/2000/svg">
<path d="M99.5 3.24164L99.8795 4.16681L99.5 3.24164ZM0 8.74164L6.09294 18.5503L11.541 8.36932L0 8.74164ZM9.59383 14.8743C11.4629 15.8138 13.3058 16.7199 15.1228 17.5933L15.9892 15.7907C14.1831 14.9225 12.3508 14.0217 10.4921 13.0874L9.59383 14.8743ZM22.5108 21.0305C24.4423 21.8987 26.3425 22.7282 28.2117 23.5203L28.992 21.6788C27.1364 20.8925 25.2494 20.0687 23.3307 19.2063L22.5108 21.0305ZM35.7386 26.5749C37.7208 27.3427 39.6654 28.0663 41.5728 28.7471L42.2451 26.8635C40.355 26.1888 38.4271 25.4715 36.461 24.7099L35.7386 26.5749ZM49.3626 31.3582C51.3493 31.9794 53.2917 32.5514 55.1904 33.0762L55.7232 31.1484C53.8466 30.6298 51.9256 30.0641 49.9595 29.4493L49.3626 31.3582ZM63.1679 35.0658C65.2685 35.5305 67.309 35.9331 69.2903 36.277L69.6323 34.3065C67.6822 33.968 65.6717 33.5713 63.5999 33.113L63.1679 35.0658ZM77.4436 37.4033C79.5867 37.6189 81.6494 37.7594 83.6332 37.8301L83.7045 35.8313C81.7655 35.7623 79.7459 35.6249 77.6439 35.4133L77.4436 37.4033ZM91.8636 37.7079C94.0352 37.5567 96.0899 37.3111 98.0305 36.9814L97.6954 35.0096C95.823 35.3278 93.8338 35.5659 91.7247 35.7128L91.8636 37.7079ZM106.146 34.9134C108.234 34.1777 110.133 33.325 111.851 32.3784L110.885 30.6268C109.269 31.5175 107.471 32.326 105.481 33.0272L106.146 34.9134ZM118.619 27.31C120.209 25.6828 121.47 23.9482 122.413 22.1689L120.646 21.2321C119.797 22.8347 118.651 24.4153 117.188 25.912L118.619 27.31ZM124.556 13.8586C124.547 11.5898 124.041 9.41658 123.068 7.48739L121.282 8.38811C122.108 10.0251 122.548 11.8905 122.556 13.867L124.556 13.8586ZM116.814 1.47344C114.975 0.617396 112.851 0.105709 110.479 0.0145032L110.402 2.01303C112.531 2.09489 114.391 2.55187 115.97 3.28662L116.814 1.47344ZM102.134 1.23106C101.155 1.53339 100.15 1.89418 99.1204 2.31647L99.8795 4.16681C100.856 3.76615 101.805 3.42588 102.724 3.14208L102.134 1.23106ZM99.1204 2.31647C98.1855 2.70003 97.304 3.15336 96.4752 3.67333L97.5381 5.36751C98.2689 4.90902 99.0486 4.50769 99.8795 4.16681L99.1204 2.31647ZM90.9411 9.22003C89.9238 10.7958 89.0876 12.5569 88.4178 14.4755L90.306 15.1348C90.931 13.3447 91.7014 11.7299 92.6214 10.3048L90.9411 9.22003ZM86.7089 21.9361C86.4711 23.7476 86.3283 25.6461 86.2745 27.6198L88.2737 27.6743C88.3259 25.7615 88.4641 23.9322 88.6919 22.1965L86.7089 21.9361ZM86.4663 35.1894C86.5992 37.0222 86.7921 38.9019 87.0418 40.8217L89.0251 40.5637C88.7799 38.6787 88.591 36.8369 88.461 35.0447L86.4663 35.1894ZM88.2476 48.2452C88.5977 50.0614 88.9909 51.904 89.4249 53.7679L91.3728 53.3143C90.9443 51.474 90.5564 49.6565 90.2114 47.8666L88.2476 48.2452ZM91.2931 61.0403C91.7935 62.8273 92.3272 64.6277 92.8921 66.4374L94.8013 65.8414C94.242 64.0499 93.714 62.2684 93.219 60.501L91.2931 61.0403ZM95.2595 73.5594C95.8789 75.3178 96.5252 77.08 97.1966 78.8424L99.0656 78.1304C98.4 76.3834 97.7596 74.6371 97.1459 72.8949L95.2595 73.5594ZM99.9808 85.8077C100.342 86.6719 100.71 87.535 101.082 88.3967L102.918 87.6028C102.548 86.7485 102.184 85.8926 101.826 85.0357L99.9808 85.8077Z" fill="#C9D1D9"/>
</svg>
