<svg width="22" height="22" viewBox="0 0 22 22" fill="none" xmlns="http://www.w3.org/2000/svg">
<path d="M12.3125 11.6875C11.2079 11.6875 10.3125 10.7921 10.3125 9.6875V3.30859C10.3125 2.95263 10.0239 2.66406 9.66797 2.66406C4.33675 2.66406 0 7.00081 0 12.332C0 17.6632 4.33675 22 9.66797 22C14.9992 22 19.3359 17.6632 19.3359 12.332C19.3359 11.9761 19.0474 11.6875 18.6914 11.6875H12.3125Z" fill="#1B74E4"/>
<path d="M12.332 0C11.9761 0 11.6875 0.288566 11.6875 0.644531V8.3125C11.6875 9.41707 12.5829 10.3125 13.6875 10.3125H21.3555C21.7114 10.3125 22 10.0239 22 9.66797C22 4.33675 17.6632 0 12.332 0Z" fill="#FF5288"/>
</svg>
