<svg width="22" height="22" viewBox="0 0 22 22" fill="none" xmlns="http://www.w3.org/2000/svg">
<g clip-path="url(#clip0_2_196)">
<path d="M13 0C8.02963 0 4 4.02963 4 9C4 13.9704 8.02963 18 13 18C17.9704 18 22 13.9704 22 9C22 4.02963 17.9704 0 13 0ZM15.5852 12.5481C15.1926 13.0259 14.6815 13.3481 14.0852 13.5111C13.8259 13.5815 13.7074 13.7185 13.7222 13.9889C13.7333 14.2556 13.7222 14.5185 13.7185 14.7852C13.7185 15.0222 13.5963 15.1481 13.363 15.1556C13.2111 15.1593 13.0593 15.163 12.9074 15.163C12.7741 15.163 12.6407 15.163 12.5074 15.1593C12.2556 15.1556 12.137 15.0111 12.137 14.7667C12.1333 14.5741 12.1333 14.3778 12.1333 14.1852C12.1296 13.7556 12.1148 13.7407 11.7037 13.6741C11.1778 13.5889 10.6593 13.4704 10.1778 13.237C9.8 13.0519 9.75926 12.9593 9.86667 12.5593C9.94815 12.263 10.0296 11.9667 10.1222 11.6741C10.1889 11.4593 10.2519 11.363 10.3667 11.363C10.4333 11.363 10.5185 11.3963 10.6333 11.4556C11.1667 11.7333 11.7333 11.8889 12.3296 11.963C12.4296 11.9741 12.5296 11.9815 12.6296 11.9815C12.9074 11.9815 13.1778 11.9296 13.4407 11.8148C14.1037 11.5259 14.2074 10.7593 13.6481 10.3C13.4593 10.1444 13.2407 10.0296 13.0148 9.92963C12.4333 9.67407 11.8296 9.48148 11.2815 9.15185C10.3926 8.61852 9.82963 7.88889 9.8963 6.80741C9.97037 5.58519 10.663 4.82222 11.7852 4.41481C12.2481 4.24815 12.2519 4.25185 12.2519 3.77037C12.2519 3.60741 12.2481 3.44444 12.2556 3.27778C12.2667 2.91481 12.3259 2.85185 12.6889 2.84074C12.7296 2.84074 12.7741 2.84074 12.8148 2.84074C12.8852 2.84074 12.9556 2.84074 13.0259 2.84074C13.0556 2.84074 13.0852 2.84074 13.1111 2.84074C13.8 2.84074 13.8 2.87037 13.8037 3.61481C13.8074 4.16296 13.8074 4.16296 14.3519 4.24815C14.7704 4.31481 15.1667 4.43704 15.5519 4.60741C15.763 4.7 15.8444 4.84815 15.7778 5.07407C15.6815 5.40741 15.5889 5.74444 15.4852 6.07407C15.4185 6.27407 15.3556 6.36667 15.237 6.36667C15.1704 6.36667 15.0889 6.34074 14.9852 6.28889C14.4519 6.02963 13.8926 5.9037 13.3074 5.9037C13.2333 5.9037 13.1556 5.90741 13.0815 5.91111C12.9074 5.92222 12.737 5.94444 12.5741 6.01481C11.9963 6.26667 11.9037 6.9037 12.3963 7.2963C12.6444 7.4963 12.9296 7.63704 13.2222 7.75926C13.7333 7.97037 14.2444 8.17407 14.7296 8.44074C16.2556 9.29259 16.6704 11.2296 15.5852 12.5481Z" fill="#1B74E4"/>
<path d="M9.29471 10.8825C9.15675 10.7651 8.98742 10.6906 8.80764 10.6684C8.62785 10.6461 8.44548 10.677 8.28303 10.7571L0.459951 14.548C0.283725 14.6333 0.138658 14.7717 0.0451162 14.9438C-0.0484253 15.1158 -0.0857433 15.3128 -0.0615982 15.5071C-0.0374531 15.7014 0.0469425 15.8833 0.179739 16.0272C0.312536 16.1711 0.487065 16.2698 0.678823 16.3094L4.10398 17.0188C4.11495 17.021 4.12519 17.0259 4.13378 17.0331C4.14237 17.0403 4.14903 17.0495 4.15318 17.0599L5.4463 20.3098C5.5172 20.4927 5.64435 20.6483 5.80942 20.7543C5.97449 20.8602 6.16895 20.9109 6.36473 20.8992C6.56013 20.8887 6.7474 20.8176 6.90051 20.6957C7.05362 20.5739 7.16495 20.4073 7.21902 20.2193L9.59386 11.8565C9.64471 11.6827 9.64348 11.4978 9.59031 11.3247C9.53713 11.1515 9.43436 10.9978 9.29471 10.8825Z" fill="#FF5288"/>
</g>
<defs>
<clipPath id="clip0_2_196">
<rect width="22" height="22" fill="white"/>
</clipPath>
</defs>
</svg>
