<svg width="15" height="16" viewBox="0 0 15 16" fill="none" xmlns="http://www.w3.org/2000/svg">
<g clip-path="url(#clip0_2_110)">
<path d="M14.6746 7.1122C14.9699 6.81186 15.0741 6.37107 14.9468 5.96132C14.8191 5.55157 14.4866 5.25907 14.0781 5.19699L10.4462 4.64616C10.2915 4.62265 10.1578 4.52139 10.0887 4.37498L8.46499 0.940211C8.28267 0.554285 7.91263 0.314453 7.50024 0.314453C7.08814 0.314453 6.7181 0.554285 6.53578 0.940211L4.91173 4.37529C4.84265 4.5217 4.70869 4.62296 4.554 4.64648L0.922044 5.19731C0.513854 5.25907 0.181055 5.55188 0.0534018 5.96163C-0.073951 6.37139 0.0302741 6.81217 0.325528 7.11251L2.95338 9.78609C3.06542 9.90021 3.11678 10.0645 3.09035 10.225L2.4704 14.0002C2.41544 14.3326 2.49894 14.6558 2.70498 14.9107C3.02517 15.3079 3.58414 15.4289 4.03107 15.1837L7.27917 13.4011C7.41493 13.3268 7.58584 13.3275 7.7213 13.4011L10.9697 15.1837C11.1277 15.2706 11.2962 15.3145 11.4701 15.3145C11.7876 15.3145 12.0885 15.1671 12.2955 14.9107C12.5018 14.6558 12.585 14.3319 12.5301 14.0002L11.9098 10.225C11.8834 10.0642 11.9348 9.90021 12.0468 9.78609L14.6746 7.1122Z" fill="#FF5288"/>
</g>
<defs>
<clipPath id="clip0_2_110">
<rect width="15" height="16" fill="white"/>
</clipPath>
</defs>
</svg>
